<svg width="18" height="18" viewBox="0 0 18 18" fill="none" xmlns="http://www.w3.org/2000/svg">
<path d="M7.63667 1.25586C9.70947 1.32272 11.7314 1.65575 13.6671 2.43001C14.4601 2.7472 14.751 3.65078 15.0949 4.365C15.5982 5.41043 16.1943 6.49768 16.4005 7.65262C16.7886 9.82608 16.826 11.6488 15.1324 13.1664C12.4838 15.5399 5.44387 19.0822 2.94008 14.5754C1.79301 12.5107 1.29567 10.3635 1.3902 8.00017C1.4148 7.38523 1.30198 6.08149 1.71896 5.57672C2.14201 5.06462 2.79685 4.82156 3.20309 4.29925C4.08533 3.16493 5.25156 2.82219 6.45313 2.10125" stroke="#FF4D00" stroke-width="2" stroke-linecap="round"/>
<path d="M8.31302 12.4149C8.31302 9.98696 7.8743 7.61796 7.80578 5.21974C7.7874 4.57645 6.67361 5.95203 6.5471 6.15906C6.24345 6.65593 5.77686 6.91367 5.77686 7.51168" stroke="#FF4D00" stroke-width="2" stroke-linecap="round"/>
<path d="M8.14355 5.31372C8.62583 5.90316 9.66332 7.51173 10.5106 7.51173" stroke="#FF4D00" stroke-width="2" stroke-linecap="round"/>
</svg>
