<svg width="646" height="281" viewBox="0 0 646 281" fill="none" xmlns="http://www.w3.org/2000/svg">
<path d="M17.3361 286.591L34.2386 326.143L37.3045 796.905L626.674 780.463L625.743 310.695L629.867 213.152L594.369 148.84L535.555 79.3858L501.013 68.2369L508.172 41.7056L499.383 9.82617L482.632 13.4533L430.482 50.7192L398.718 44.7592L355.638 29.6354L265.654 32.1458L197.7 50.3672L139.797 13.5385L117.147 69.9934L100.66 83.0926L50.0882 120.314L8.76061 205.729L17.3361 286.591Z" fill="#FDEEB8"/>
<path d="M438.794 132.643L409.636 136.805L402.482 142.586L395.509 175.149L399.021 200.163L435.818 207.508L461.04 183.365L460.325 157.714L451.265 135.644L438.794 132.643Z" fill="white"/>
<path d="M438.794 132.643L409.636 136.805L402.482 142.586L395.509 175.149L399.021 200.163L435.818 207.508L461.04 183.365L460.325 157.714L451.265 135.644L438.794 132.643Z" fill="white"/>
<path d="M438.794 132.643L409.636 136.805L402.482 142.586L395.509 175.149L399.021 200.163L435.818 207.508L461.04 183.365L460.325 157.714L451.265 135.644L438.794 132.643Z" fill="white"/>
<path d="M438.794 132.643L409.636 136.805L402.482 142.586L395.509 175.149L399.021 200.163L435.818 207.508L461.04 183.365L460.325 157.714L451.265 135.644L438.794 132.643Z" fill="white"/>
<path d="M438.794 132.643L409.636 136.805L402.482 142.586L395.509 175.149L399.021 200.163L435.818 207.508L461.04 183.365L460.325 157.714L451.265 135.644L438.794 132.643Z" fill="white"/>
<path fill-rule="evenodd" clip-rule="evenodd" d="M286.459 270.287C285.859 270.37 285.276 270.45 284.712 270.528C282.9 270.777 281.29 270.998 279.973 271.177C275.075 271.841 271.644 276.35 272.308 281.247C272.717 284.263 274.583 286.722 277.1 288.012C277.846 290.573 279.568 292.327 280.484 293.077C282.004 294.322 283.674 295.006 284.639 295.363C286.778 296.154 289.323 296.693 291.389 297.065C293.577 297.457 295.77 297.754 297.435 297.955C298.277 298.057 299.002 298.137 299.546 298.195C299.748 298.216 300.725 298.316 300.54 298.297C300.559 298.299 300.58 298.301 300.603 298.303C301.649 298.414 307.111 298.995 312.059 298.767C314.263 298.665 318.01 298.37 321.111 296.789C322.662 295.999 325.293 294.248 326.561 290.882C330.03 288.706 333.503 285.869 335.94 282.327C336.983 280.811 338.55 277.648 337.378 273.75C336.272 270.072 333.478 268.339 332.175 267.687C329.686 266.44 326.879 266.241 325.546 266.167C322.183 265.981 318.236 266.313 316.289 266.502C313.851 266.739 310.758 267.097 307.377 267.515C304.04 266.212 300.336 265.312 296.716 265.489C293.475 265.647 289.284 266.711 286.459 270.287Z" fill="#F6C1AA"/>
<path fill-rule="evenodd" clip-rule="evenodd" d="M293.464 234.479C288.724 234.932 283.663 235.414 279.116 235.537C274.175 235.671 270.062 231.774 269.928 226.833C269.795 221.892 273.692 217.779 278.633 217.645C282.63 217.537 286.537 217.16 290.818 216.747C293.345 216.503 296.002 216.246 298.886 216.025C306.128 215.469 314.188 215.223 322 216.847C322.224 216.894 322.455 216.941 322.69 216.99C325.641 217.596 329.393 218.367 332.551 220.109C336.775 222.441 339.281 225.953 341.072 230.146C343.014 234.691 340.904 239.95 336.358 241.892C331.813 243.833 326.555 241.723 324.613 237.178C324.221 236.26 323.959 235.879 323.869 235.762C323.738 235.695 323.365 235.53 322.478 235.291C321.465 235.018 320.232 234.761 318.357 234.371C313.1 233.278 307.102 233.345 300.256 233.871C298.143 234.033 295.844 234.252 293.464 234.479Z" fill="#F6C1AA"/>
<path fill-rule="evenodd" clip-rule="evenodd" d="M145.954 21.8334C145.751 22.1899 145.551 22.5486 145.355 22.9029C145.228 23.133 145.085 23.3968 144.936 23.6692C144.608 24.2706 144.258 24.9136 144.018 25.3264C142.538 27.8749 141.389 30.4854 140.401 33.3869C139.555 35.8703 138.819 38.3077 138.033 40.9078C137.749 41.8466 137.459 42.8067 137.155 43.7977C136.045 47.4174 134.798 51.2812 133.187 55.1779C130.4 61.9201 128.296 67.3473 127.367 73.2798C126.604 78.163 122.026 81.5022 117.142 80.7383C112.259 79.9743 108.92 75.3964 109.684 70.5133C110.979 62.2359 113.883 55.0229 116.646 48.3395C117.926 45.2457 118.975 42.0343 120.043 38.5498C120.299 37.7169 120.559 36.8552 120.825 35.9735C121.636 33.2901 122.503 30.4219 123.458 27.6172C124.77 23.7631 126.385 20.0501 128.539 16.339C128.559 16.3053 128.627 16.1813 128.732 15.9882C129.241 15.0535 130.631 12.5016 131.716 10.7623C132.471 9.55234 133.438 8.11018 134.543 6.82056C135.335 5.89543 137.426 3.52577 140.657 2.53061C142.934 1.8293 144.923 2.14121 145.72 2.28868C146.736 2.4768 147.638 2.77317 148.302 3.01887C149.646 3.51603 150.977 4.1703 152.007 4.7108C153.085 5.27654 154.085 5.85064 154.81 6.27708C155.169 6.4883 155.474 6.67084 155.685 6.79706L155.697 6.80427C155.753 6.83762 155.797 6.86396 155.831 6.88423C161.654 9.93099 167.93 13.2257 173.848 17.1026C182.789 22.9596 190.602 29.9223 197.701 36.7649C201.905 40.8169 206.175 45.1897 208.542 52.6476C210.037 57.3586 207.43 62.3896 202.719 63.8847C198.008 65.3798 192.977 62.7729 191.482 58.0619C190.547 55.1181 189.125 53.3581 185.279 49.6513C178.481 43.0984 171.602 37.0283 164.04 32.0746C158.912 28.715 153.341 25.7822 147.353 22.6488C147.174 22.5552 147.027 22.4706 146.983 22.445L146.981 22.444C146.913 22.4052 146.85 22.3681 146.803 22.3402C146.713 22.2869 146.606 22.2227 146.51 22.1652L146.499 22.1586C146.341 22.0639 146.159 21.9551 145.954 21.8334Z" fill="#F6C1AA"/>
<path fill-rule="evenodd" clip-rule="evenodd" d="M143.699 51.3497C148.497 50.1616 153.349 53.0876 154.538 57.8852C154.775 58.8446 154.973 59.4763 155.222 60.2729C155.433 60.9477 155.682 61.7409 156.023 62.9519C156.602 65.0085 157.253 67.7389 157.253 70.8021C157.253 75.7446 153.246 79.7513 148.304 79.7513C143.361 79.7513 139.354 75.7446 139.354 70.8021C139.354 70.1889 139.221 69.3183 138.794 67.8021C138.712 67.5109 138.565 67.0286 138.389 66.4485C138.001 65.1713 137.469 63.4197 137.164 62.1879C135.976 57.3903 138.902 52.5379 143.699 51.3497Z" fill="#F6C1AA"/>
<path fill-rule="evenodd" clip-rule="evenodd" d="M492.231 18.4433C493.048 20.0875 493.92 22.6077 494.715 25.8852C496.583 33.5801 497.337 42.4208 497.385 45.1895C497.502 51.8729 495.053 59.3649 491.55 66.3132C489.325 70.7266 491.099 76.1081 495.513 78.333C499.926 80.558 505.307 78.7839 507.532 74.3705C511.639 66.2241 515.471 55.7029 515.281 44.8762C515.213 40.9574 514.325 30.7913 512.109 21.6628C511.022 17.186 509.434 12.1635 507.004 8.20272C504.788 4.58813 499.636 -1.41311 491.35 0.301846C459.97 6.79709 435.655 26.5741 415.917 50.2387C412.751 54.0344 413.262 59.6777 417.058 62.8434C420.853 66.0092 426.497 65.4985 429.662 61.7029C447.4 40.4358 467.618 24.3628 492.231 18.4433ZM491.291 16.9011C491.291 16.8992 491.309 16.9172 491.343 16.9608C491.308 16.9247 491.291 16.9029 491.291 16.9011Z" fill="#F6C1AA"/>
<path fill-rule="evenodd" clip-rule="evenodd" d="M482.438 49.6689C487.079 51.3685 489.464 56.5086 487.764 61.1498C487.226 62.62 486.763 64.0066 486.258 65.5213C485.983 66.3461 485.696 67.2088 485.376 68.1437C483.778 72.8207 478.69 75.3163 474.014 73.7179C469.337 72.1194 466.841 67.0322 468.439 62.3553C468.668 61.6861 468.912 60.9562 469.167 60.1929C469.723 58.5256 470.333 56.6988 470.957 54.9953C472.657 50.3541 477.797 47.9694 482.438 49.6689Z" fill="#F6C1AA"/>
<path fill-rule="evenodd" clip-rule="evenodd" d="M532.017 76.8876C535.523 73.4035 541.189 73.421 544.673 76.9267C544.939 77.1944 545.206 77.4628 545.474 77.732C582.815 115.301 633.847 166.645 642.024 236.166C644.896 260.588 637.549 285.924 631.412 307.085C630.426 310.487 629.471 313.78 628.595 316.944C627.359 321.406 626.139 326.18 624.874 331.127C620.374 348.735 615.311 368.539 607.004 384.261C587.923 420.372 557.788 444.576 528.426 461.325C521.453 465.303 513.128 467.591 506.106 469.521C504.968 469.833 503.865 470.136 502.807 470.436C494.486 472.791 488.266 475.044 483.909 478.843C480.184 482.092 474.531 481.705 471.283 477.98C468.034 474.255 468.421 468.602 472.146 465.354C479.86 458.626 489.733 455.535 497.932 453.214C499.221 452.849 500.471 452.502 501.682 452.165C508.861 450.171 514.7 448.549 519.557 445.779C547.176 430.024 574.232 407.971 591.179 375.899C598.393 362.246 602.719 345.377 607.143 328.129C608.506 322.817 609.877 317.468 611.345 312.167C612.325 308.63 613.342 305.091 614.359 301.553C620.52 280.123 626.66 258.767 624.248 238.257C616.851 175.365 570.217 128.019 531.978 89.5437C528.494 86.0381 528.512 80.3717 532.017 76.8876Z" fill="#F6C1AA"/>
<path fill-rule="evenodd" clip-rule="evenodd" d="M106.505 76.1284C110.431 79.1308 111.18 84.7475 108.178 88.6736C102.957 95.5006 95.3471 99.5349 89.2906 102.494C87.9525 103.148 86.689 103.753 85.4947 104.324C80.6196 106.655 76.8966 108.435 73.948 110.797C57.8313 123.707 40.8321 141.26 32.6806 162.168C21.6976 190.34 14.0213 231.25 20.4575 260.046C34.0108 320.685 66.9501 372.016 98.8769 420.344C99.1604 420.773 99.6149 421.487 100.215 422.431C102.564 426.124 107.147 433.328 112.458 440.686C115.772 445.278 119.185 449.665 122.278 453.029C123.825 454.712 125.168 456.003 126.272 456.9C127.274 457.714 127.753 457.935 127.75 457.941C127.749 457.942 127.746 457.941 127.741 457.939C132.404 459.497 134.941 464.529 133.411 469.208C131.875 473.906 126.822 476.469 122.124 474.934C119.326 474.019 116.883 472.334 114.983 470.79C112.977 469.159 110.99 467.197 109.101 465.142C105.32 461.028 101.435 455.998 97.9443 451.161C92.2013 443.204 87.0222 435.048 84.8717 431.662C84.4225 430.955 84.1054 430.455 83.9429 430.21C52.1635 382.105 17.3562 328.226 2.98993 263.95C-4.54408 230.243 4.39802 185.438 16.0046 155.667C25.8311 130.462 45.6695 110.516 62.7582 96.8278C67.4914 93.0364 73.5881 90.1457 78.5593 87.7885C79.5705 87.3091 80.5351 86.8517 81.4323 86.4133C87.4838 83.4561 91.5485 80.9543 93.9601 77.8008C96.9625 73.8747 102.579 73.1259 106.505 76.1284Z" fill="#F6C1AA"/>
<path fill-rule="evenodd" clip-rule="evenodd" d="M280.524 41.375C275.437 41.6231 270.281 41.8746 264.983 42.0724C256.521 42.3885 247.512 44.6931 238.101 47.1007C236.397 47.5368 234.679 47.9762 232.949 48.4079C229.671 49.2256 226.639 50.2064 223.283 51.2918C221.14 51.9849 218.865 52.7207 216.31 53.484C210.294 55.2813 203.433 56.9666 196.253 56.9666C191.311 56.9666 187.304 52.9599 187.304 48.0173C187.304 43.0748 191.311 39.0681 196.253 39.0681C200.784 39.0681 205.64 37.9913 211.187 36.3343C212.91 35.8196 214.833 35.2013 216.849 34.5536C220.689 33.3195 224.862 31.9783 228.616 31.0416C230.097 30.6723 231.645 30.2735 233.25 29.8603C242.56 27.4628 253.75 24.581 264.315 24.1864C269.175 24.0048 274.108 23.765 279.089 23.5227C289.669 23.0081 300.471 22.4828 311.277 22.4828C330.089 22.4828 347.867 23.8721 366.349 26.0351C371.258 26.6097 374.772 31.055 374.197 35.964C373.623 40.8731 369.177 44.3869 364.268 43.8123C346.234 41.7016 329.186 40.3814 311.277 40.3814C300.9 40.3814 290.853 40.8713 280.524 41.375Z" fill="#F6C1AA"/>
<path fill-rule="evenodd" clip-rule="evenodd" d="M383.352 38.7738C384.327 33.9284 389.045 30.7909 393.891 31.7659C406.675 34.3387 417.663 39.0252 425.931 42.5519C426.225 42.6775 426.516 42.8016 426.804 42.9241C431.351 44.8615 433.466 50.1181 431.529 54.6651C429.592 59.2121 424.335 61.3276 419.788 59.3902C419.621 59.3191 419.454 59.2479 419.286 59.1764C410.847 55.5797 401.316 51.5175 390.36 49.3127C385.514 48.3376 382.377 43.6192 383.352 38.7738Z" fill="#F6C1AA"/>
<path fill-rule="evenodd" clip-rule="evenodd" d="M496.335 60.1397C498.321 55.6138 503.6 53.5552 508.126 55.5416C509.739 56.2492 511.224 56.9258 512.645 57.5728C515.394 58.8251 517.9 59.9665 520.611 61.0073C520.88 61.1107 521.292 61.2551 521.946 61.4839C522.158 61.5582 522.396 61.6415 522.663 61.7352C523.638 62.0778 524.847 62.5084 526.053 62.9783C527.222 63.4336 528.594 64.0053 529.84 64.6534C530.461 64.9763 531.22 65.4049 531.972 65.942C532.594 66.3864 533.874 67.3613 534.902 68.9408C535.599 70.0118 536.834 71.2359 538.859 72.6726C540.609 73.9139 542.486 75.0064 544.653 76.2678C545.041 76.4932 545.437 76.7241 545.844 76.9621C550.11 79.4585 551.544 84.9403 549.048 89.2061C546.552 93.4719 541.07 94.9063 536.804 92.41C536.481 92.221 536.14 92.0229 535.784 91.8162C533.645 90.5741 530.972 89.0221 528.503 87.2707C526.004 85.4978 523.259 83.2181 520.994 80.2519C520.617 80.0829 520.137 79.8824 519.554 79.6553C518.643 79.3001 517.668 78.9516 516.731 78.6221C516.571 78.5661 516.404 78.5077 516.233 78.4479C515.519 78.1981 514.74 77.9258 514.194 77.7161C510.981 76.4821 507.62 74.9539 504.598 73.5798C503.301 72.99 502.067 72.4286 500.933 71.931C496.407 69.9447 494.349 64.6655 496.335 60.1397Z" fill="#F6C1AA"/>
<path fill-rule="evenodd" clip-rule="evenodd" d="M137.996 58.7884C138.688 53.8945 143.216 50.488 148.11 51.1798C153.056 51.8788 156.314 55.1252 157.878 56.8134C158.684 57.6836 159.447 58.6104 160.018 59.3032C160.074 59.3715 160.128 59.4375 160.181 59.5009C160.846 60.3079 161.27 60.8065 161.637 61.1837C162.407 61.9753 164.541 64.3475 164.574 68.0568C164.614 72.5266 161.723 75.0904 160.285 76.0421C158.943 76.9303 157.634 77.3128 157.237 77.4289L157.229 77.4311C156.961 77.5096 156.719 77.5715 156.608 77.5997L156.598 77.6022C156.562 77.6114 156.537 77.618 156.52 77.6223C154.638 78.1704 153.678 78.4662 152.816 78.8927C148.386 81.0844 143.018 79.2698 140.826 74.8398C139.51 72.1782 139.639 69.1781 140.913 66.7317C138.75 64.8067 137.561 61.8701 137.996 58.7884ZM148.762 73.6172C148.778 73.6338 148.794 73.6504 148.81 73.6669C148.808 73.6643 148.805 73.6614 148.802 73.6582C148.791 73.6476 148.778 73.6339 148.762 73.6172Z" fill="#F6C1AA"/>
<path fill-rule="evenodd" clip-rule="evenodd" d="M484.362 63.2706C485.611 61.5716 486.268 59.4266 486.062 57.161C485.615 52.2387 481.262 48.6112 476.34 49.0587C473.533 49.3138 471.004 50.4285 469.341 51.3091C467.541 52.2619 465.749 53.4828 464.316 54.7726C462.846 56.0948 461.643 58.0445 461.339 60.4598C461.06 62.6746 461.642 64.4526 462.121 65.4967C462.981 67.3723 464.271 68.5339 464.692 68.9079C465.789 69.8821 467.04 70.6315 467.794 71.061C469.36 71.9536 471.432 72.9367 472.726 73.3679C477.415 74.9309 482.483 72.3968 484.046 67.7079C484.54 66.2258 484.625 64.7058 484.362 63.2706Z" fill="#F6C1AA"/>
<path fill-rule="evenodd" clip-rule="evenodd" d="M498.652 238.922C503.106 241.066 504.978 246.414 502.833 250.867C498.676 259.501 494.084 267.79 488.688 275.883C485.947 279.996 480.39 281.107 476.278 278.365C472.166 275.624 471.054 270.067 473.796 265.955C478.655 258.666 482.847 251.12 486.707 243.103C488.851 238.65 494.199 236.778 498.652 238.922Z" fill="#F6C1AA"/>
<path fill-rule="evenodd" clip-rule="evenodd" d="M513.604 268.864C517.836 267.234 520.23 262.631 519.011 258.161C517.71 253.392 512.791 250.581 508.022 251.882C503.778 253.039 500.985 255.861 499.328 258.066C497.634 260.321 496.52 262.736 495.824 264.476C493.988 269.065 496.221 274.273 500.81 276.109C505.399 277.945 510.607 275.713 512.442 271.123C512.636 270.64 512.843 270.178 513.062 269.76C513.267 269.367 513.453 269.071 513.604 268.864Z" fill="#F6C1AA"/>
<path fill-rule="evenodd" clip-rule="evenodd" d="M530.761 270.729C534.754 268.897 536.889 264.356 535.59 260.027C534.17 255.293 529.181 252.607 524.447 254.027C520.481 255.217 517.825 258.298 516.79 259.511C516.119 260.298 515.501 261.098 515.054 261.676C515.037 261.699 515.02 261.721 515.003 261.743C514.472 262.431 514.235 262.729 514.086 262.897C510.802 266.591 511.135 272.248 514.829 275.531C518.523 278.815 524.18 278.482 527.463 274.788C528.074 274.101 528.684 273.311 529.1 272.772C529.124 272.742 529.146 272.712 529.168 272.684C529.665 272.04 530.041 271.557 530.408 271.126C530.546 270.964 530.663 270.834 530.761 270.729Z" fill="#F6C1AA"/>
<path fill-rule="evenodd" clip-rule="evenodd" d="M111.272 242.451C113.555 240.565 114.854 237.589 114.46 234.434C113.847 229.529 109.374 226.05 104.469 226.663C99.7842 227.249 97.157 230.435 95.9585 232.499C94.7992 234.496 94.2362 236.621 93.926 237.982C93.6563 239.165 93.4422 240.436 93.2929 241.323C93.2624 241.504 93.2346 241.669 93.2096 241.814C93.0806 242.562 93.0103 242.856 93.0076 242.888C91.3578 247.412 93.5914 252.458 98.0933 254.259C102.682 256.094 107.891 253.862 109.726 249.273C110.112 248.309 110.342 247.382 110.481 246.759C110.63 246.091 110.752 245.414 110.847 244.858C110.895 244.582 110.938 244.327 110.979 244.088C111.087 243.453 111.174 242.936 111.272 242.451Z" fill="#F6C1AA"/>
<path fill-rule="evenodd" clip-rule="evenodd" d="M153.959 238.23C154.772 243.105 151.478 247.716 146.603 248.529C146.374 248.567 145.45 248.871 143.875 250.18C142.398 251.409 140.938 253.026 139.633 254.657C136.545 258.517 130.913 259.142 127.054 256.055C123.194 252.967 122.569 247.336 125.656 243.476C127.323 241.392 129.642 238.737 132.433 236.417C135.127 234.178 138.96 231.657 143.66 230.874C148.536 230.061 153.147 233.355 153.959 238.23Z" fill="#F6C1AA"/>
<path fill-rule="evenodd" clip-rule="evenodd" d="M175.546 247.491C176.99 252.218 174.329 257.221 169.603 258.665C166.101 259.735 162.988 261.794 158.424 264.837C154.311 267.579 148.755 266.467 146.013 262.355C143.272 258.242 144.383 252.686 148.495 249.944C148.726 249.791 148.961 249.633 149.201 249.473C153.146 246.834 158.257 243.416 164.372 241.548C169.099 240.104 174.102 242.765 175.546 247.491Z" fill="#F6C1AA"/>
<path d="M208.178 133.802L179.02 137.964L171.865 143.745L164.892 176.308L168.405 201.322L205.202 208.667L230.424 184.524L229.709 158.873L220.648 136.803L208.178 133.802Z" fill="white"/>
<path d="M208.178 133.802L179.02 137.964L171.865 143.745L164.892 176.308L168.405 201.322L205.202 208.667L230.424 184.524L229.709 158.873L220.648 136.803L208.178 133.802Z" fill="white"/>
<path d="M208.178 133.802L179.02 137.964L171.865 143.745L164.892 176.308L168.405 201.322L205.202 208.667L230.424 184.524L229.709 158.873L220.648 136.803L208.178 133.802Z" fill="white"/>
<path d="M208.178 133.802L179.02 137.964L171.865 143.745L164.892 176.308L168.405 201.322L205.202 208.667L230.424 184.524L229.709 158.873L220.648 136.803L208.178 133.802Z" fill="white"/>
<path d="M208.178 133.802L179.02 137.964L171.865 143.745L164.892 176.308L168.405 201.322L205.202 208.667L230.424 184.524L229.709 158.873L220.648 136.803L208.178 133.802Z" fill="white"/>
<path fill-rule="evenodd" clip-rule="evenodd" d="M208.201 133.266L221.031 136.353L230.23 158.762L230.955 184.742L205.366 209.236L167.934 201.765L164.356 176.287L171.388 143.452L178.8 137.462L208.201 133.266ZM179.236 138.464L172.339 144.037L165.425 176.326L168.872 200.878L205.034 208.096L229.889 184.305L229.183 158.983L220.262 137.25L208.15 134.336L179.236 138.464Z" fill="#F6C1AA"/>
<path fill-rule="evenodd" clip-rule="evenodd" d="M209.391 146.482C196.027 146.257 186.317 147.147 176.695 153.248C173.727 155.13 172.22 157.133 171.377 159.091C170.483 161.167 170.092 163.773 170.284 167.107C170.614 172.823 172.425 178.81 174.452 185.515C174.972 187.233 175.506 188.999 176.033 190.82C176.453 192.27 176.489 193.74 176.202 195.121C177.577 195.545 179.128 195.941 180.873 196.331C187.264 197.761 194.039 199.239 200.432 199.383C206.845 199.529 211.413 198.282 214.427 195.665C218.89 191.789 221.746 185.149 222.36 177.075C222.972 169.035 221.228 160.934 218.097 155.359C215.941 151.519 214.633 149.382 213.218 147.995C212.255 147.05 211.327 146.514 209.391 146.482ZM155.827 185.728C154.241 180.18 152.754 174.013 152.415 168.139C152.117 162.972 152.622 157.39 154.937 152.013C157.303 146.519 161.317 141.806 167.11 138.133C181.366 129.092 195.576 128.349 209.691 128.586C216.509 128.7 221.735 131.278 225.749 135.215C229.231 138.629 231.693 143.014 233.572 146.361C233.616 146.439 233.659 146.517 233.703 146.594C238.791 155.653 241.05 167.365 240.207 178.434C239.367 189.47 235.311 201.235 226.163 209.179C218.316 215.993 208.456 217.468 200.027 217.277C191.672 217.088 183.284 215.212 177.172 213.844L176.966 213.798C171.399 212.553 162.984 210.443 156.78 204.239C155.07 202.529 154.329 200.602 153.997 199.577C153.633 198.45 153.447 197.384 153.343 196.715C153.287 196.355 153.24 196.01 153.204 195.746L153.189 195.63C153.158 195.401 153.137 195.243 153.114 195.091C153.106 195.039 153.1 194.995 153.094 194.96C152.106 191.531 153.267 187.952 155.827 185.728ZM153.073 194.842C153.073 194.841 153.074 194.845 153.076 194.853C153.074 194.846 153.073 194.842 153.073 194.842Z" fill="#F6C1AA"/>
<path fill-rule="evenodd" clip-rule="evenodd" d="M179.927 173.055C178.26 172.515 176.733 171.482 175.587 169.986C172.58 166.063 173.323 160.446 177.246 157.439C179.9 155.405 183.423 153.278 187.027 151.557C190.524 149.886 194.828 148.244 198.944 147.748C202.33 147.34 210.476 147.327 213.898 155.145C215.175 158.062 215.192 161.055 214.807 163.577C216.23 167.842 216.305 172.319 215.443 176.495C215.419 176.825 215.387 177.146 215.347 177.455C214.74 182.208 212.354 187.036 208.587 190.584C207.085 191.998 205.327 193.236 203.353 194.176C201.002 195.615 198.335 196.679 195.372 197.192C190.773 197.988 184.977 197.696 180.784 193.373C176.706 189.168 176.693 183.749 177.286 180.378C177.739 177.802 178.698 175.299 179.927 173.055Z" fill="#F6C1AA"/>
<path fill-rule="evenodd" clip-rule="evenodd" d="M429.624 134.477C429.363 134.47 428.529 134.528 425.784 135.651C417.506 139.037 409.903 145.108 404.933 152.47C398.225 162.409 398.03 175.687 402.844 187.634C404.302 187.632 405.781 187.987 407.15 188.738C408.346 189.394 409.445 190.008 410.466 190.578C416.553 193.98 419.876 195.838 424.628 195.838C427.638 195.838 430.588 196.037 433.201 196.214L433.325 196.223C436.069 196.408 438.458 196.567 440.805 196.567C446.522 196.567 451.786 194.157 455.417 189.907C459.699 184.893 460.927 175.344 458.319 167.382C457.486 164.84 455.904 162.406 453.463 159.473C452.47 158.279 451.446 157.13 450.309 155.854C450.029 155.54 449.743 155.219 449.448 154.888C448.018 153.277 446.442 151.474 444.956 149.534C440.318 143.481 436.803 139.056 431.87 135.628C430.942 134.983 430.364 134.705 430.048 134.583C429.784 134.481 429.677 134.479 429.626 134.477L429.624 134.477ZM404.792 207.952C410.136 210.844 416.721 213.736 424.628 213.736C426.98 213.736 429.373 213.895 432.116 214.08L432.246 214.089C434.857 214.266 437.802 214.465 440.805 214.465C451.653 214.465 461.928 209.842 469.026 201.531C478.524 190.412 479.25 173.782 475.328 161.811C473.459 156.103 470.211 151.616 467.221 148.023C466.014 146.573 464.738 145.142 463.586 143.849C463.327 143.56 463.075 143.277 462.831 143.002C461.437 141.433 460.229 140.039 459.164 138.648L459.07 138.526C454.622 132.721 449.578 126.138 442.084 120.93C438.526 118.458 434.668 116.71 430.113 116.585C425.884 116.47 422.106 117.817 419.007 119.085C407.577 123.761 397.12 132.053 390.098 142.456L397.516 147.463L390.098 142.456C376.645 162.387 380.628 187.776 392.038 205.525C394.711 209.683 400.248 210.887 404.406 208.214C404.537 208.129 404.666 208.042 404.792 207.952Z" fill="#F6C1AA"/>
<path fill-rule="evenodd" clip-rule="evenodd" d="M425.138 147.871C423.884 146.454 422.173 145.421 420.173 145.026C415.324 144.068 410.617 147.222 409.659 152.07C409.532 152.712 409.396 153.372 409.256 154.047C408.471 157.849 407.587 162.13 407.766 166.182C407.802 166.986 407.875 167.775 407.985 168.55C406.039 171.253 405.618 174.484 406.275 177.367C407.513 182.795 411.057 185.77 414.273 187.375C415.069 187.773 415.87 188.1 416.561 188.361C417.219 188.831 418.016 189.293 418.945 189.634C419.728 189.921 420.801 190.19 422.044 190.212C422.479 190.278 422.916 190.312 423.349 190.313C427.119 192.345 431.399 193.28 435.898 192.273C445.866 190.044 449.664 180.3 449.664 171.063C449.664 170.867 449.666 170.636 449.667 170.374C449.683 168.05 449.714 163.286 448.836 158.966C448.347 156.562 447.417 153.385 445.374 150.61C443.073 147.483 439.38 144.974 434.462 144.858C431.38 144.786 428.24 145.553 425.545 147.556C425.406 147.659 425.27 147.764 425.138 147.871Z" fill="#F6C1AA"/>
</svg>
