<svg width="691" height="281" viewBox="0 0 691 281" fill="none" xmlns="http://www.w3.org/2000/svg">
<g clip-path="url(#clip0_1208_943)">
<path d="M40.3361 286.591L57.2386 326.143L60.3045 796.905L649.674 780.463L648.743 310.695L652.867 213.152L617.369 148.84L558.555 79.3858L524.013 68.2369L531.172 41.7056L522.383 9.82617L505.632 13.4533L453.482 50.7192L421.718 44.7592L378.638 29.6354L288.654 32.1458L220.7 50.3672L162.797 13.5385L140.147 69.9934L123.66 83.0926L73.0882 120.314L31.7606 205.729L40.3361 286.591Z" fill="#FDEEB8"/>
<path d="M461.794 132.643L432.636 136.805L425.482 142.586L418.509 175.149L422.021 200.163L458.818 207.508L484.04 183.365L483.325 157.714L474.265 135.644L461.794 132.643Z" fill="white"/>
<path d="M461.794 132.643L432.636 136.805L425.482 142.586L418.509 175.149L422.021 200.163L458.818 207.508L484.04 183.365L483.325 157.714L474.265 135.644L461.794 132.643Z" fill="white"/>
<path d="M461.794 132.643L432.636 136.805L425.482 142.586L418.509 175.149L422.021 200.163L458.818 207.508L484.04 183.365L483.325 157.714L474.265 135.644L461.794 132.643Z" fill="white"/>
<path d="M461.794 132.643L432.636 136.805L425.482 142.586L418.509 175.149L422.021 200.163L458.818 207.508L484.04 183.365L483.325 157.714L474.265 135.644L461.794 132.643Z" fill="white"/>
<path d="M461.794 132.643L432.636 136.805L425.482 142.586L418.509 175.149L422.021 200.163L458.818 207.508L484.04 183.365L483.325 157.714L474.265 135.644L461.794 132.643Z" fill="white"/>
<path fill-rule="evenodd" clip-rule="evenodd" d="M309.459 270.287C308.859 270.37 308.276 270.45 307.712 270.528C305.9 270.777 304.29 270.998 302.973 271.177C298.075 271.841 294.644 276.35 295.308 281.247C295.717 284.263 297.583 286.722 300.1 288.012C300.846 290.573 302.568 292.327 303.484 293.077C305.004 294.322 306.674 295.006 307.639 295.363C309.778 296.154 312.323 296.693 314.389 297.065C316.577 297.457 318.77 297.754 320.435 297.955C321.277 298.057 322.002 298.137 322.546 298.195C322.748 298.216 323.725 298.316 323.54 298.297C323.559 298.299 323.58 298.301 323.603 298.303C324.649 298.414 330.111 298.995 335.059 298.767C337.263 298.665 341.01 298.37 344.111 296.789C345.662 295.999 348.293 294.248 349.561 290.882C353.03 288.706 356.503 285.869 358.94 282.327C359.983 280.811 361.55 277.648 360.378 273.75C359.272 270.072 356.478 268.339 355.175 267.687C352.686 266.44 349.879 266.241 348.546 266.167C345.183 265.981 341.236 266.313 339.289 266.502C336.851 266.739 333.758 267.097 330.377 267.515C327.04 266.212 323.336 265.312 319.716 265.489C316.475 265.647 312.284 266.711 309.459 270.287Z" fill="#F6C1AA"/>
<path fill-rule="evenodd" clip-rule="evenodd" d="M316.464 234.479C311.724 234.932 306.663 235.414 302.116 235.537C297.175 235.671 293.062 231.774 292.928 226.833C292.795 221.892 296.692 217.779 301.633 217.645C305.63 217.537 309.537 217.16 313.818 216.747C316.345 216.503 319.002 216.246 321.886 216.025C329.128 215.469 337.188 215.223 345 216.847C345.224 216.894 345.455 216.941 345.69 216.99C348.641 217.596 352.393 218.367 355.551 220.109C359.775 222.441 362.281 225.953 364.072 230.146C366.014 234.691 363.904 239.95 359.358 241.892C354.813 243.833 349.555 241.723 347.613 237.178C347.221 236.26 346.959 235.879 346.869 235.762C346.738 235.695 346.365 235.53 345.478 235.291C344.465 235.018 343.232 234.761 341.357 234.371C336.1 233.278 330.102 233.345 323.256 233.871C321.143 234.033 318.844 234.252 316.464 234.479Z" fill="#F6C1AA"/>
<path fill-rule="evenodd" clip-rule="evenodd" d="M168.954 21.8334C168.751 22.1899 168.551 22.5486 168.355 22.9029C168.228 23.133 168.085 23.3968 167.936 23.6692C167.608 24.2706 167.258 24.9136 167.018 25.3264C165.538 27.8749 164.389 30.4854 163.401 33.3869C162.555 35.8703 161.819 38.3077 161.033 40.9078C160.749 41.8466 160.459 42.8067 160.155 43.7977C159.045 47.4174 157.798 51.2812 156.187 55.1779C153.4 61.9201 151.296 67.3473 150.367 73.2798C149.604 78.163 145.026 81.5022 140.142 80.7383C135.259 79.9743 131.92 75.3964 132.684 70.5133C133.979 62.2359 136.883 55.0229 139.646 48.3395C140.926 45.2457 141.975 42.0343 143.043 38.5498C143.299 37.7169 143.559 36.8552 143.825 35.9735C144.636 33.2901 145.503 30.4219 146.458 27.6172C147.77 23.7631 149.385 20.0501 151.539 16.339C151.559 16.3053 151.627 16.1813 151.732 15.9882C152.241 15.0535 153.631 12.5016 154.716 10.7623C155.471 9.55234 156.438 8.11018 157.543 6.82056C158.335 5.89543 160.426 3.52577 163.657 2.53061C165.934 1.8293 167.923 2.14121 168.72 2.28868C169.736 2.4768 170.638 2.77317 171.302 3.01887C172.646 3.51603 173.977 4.1703 175.007 4.7108C176.085 5.27654 177.085 5.85064 177.81 6.27708C178.169 6.4883 178.474 6.67084 178.685 6.79706L178.697 6.80427C178.753 6.83762 178.797 6.86396 178.831 6.88423C184.654 9.93099 190.93 13.2257 196.848 17.1026C205.789 22.9596 213.602 29.9223 220.701 36.7649C224.905 40.8169 229.175 45.1897 231.542 52.6476C233.037 57.3586 230.43 62.3896 225.719 63.8847C221.008 65.3798 215.977 62.7729 214.482 58.0619C213.547 55.1181 212.125 53.3581 208.279 49.6513C201.481 43.0984 194.602 37.0283 187.04 32.0746C181.912 28.715 176.341 25.7822 170.353 22.6488C170.174 22.5552 170.027 22.4706 169.983 22.445L169.981 22.444C169.913 22.4052 169.85 22.3681 169.803 22.3402C169.713 22.2869 169.606 22.2227 169.51 22.1652L169.499 22.1586C169.341 22.0639 169.159 21.9551 168.954 21.8334Z" fill="#F6C1AA"/>
<path fill-rule="evenodd" clip-rule="evenodd" d="M166.699 51.3497C171.497 50.1616 176.349 53.0876 177.538 57.8852C177.775 58.8446 177.973 59.4763 178.222 60.2729C178.433 60.9477 178.682 61.7409 179.023 62.9519C179.602 65.0085 180.253 67.7389 180.253 70.8021C180.253 75.7446 176.246 79.7513 171.304 79.7513C166.361 79.7513 162.354 75.7446 162.354 70.8021C162.354 70.1889 162.221 69.3183 161.794 67.8021C161.712 67.5109 161.565 67.0286 161.389 66.4485C161.001 65.1713 160.469 63.4197 160.164 62.1879C158.976 57.3903 161.902 52.5379 166.699 51.3497Z" fill="#F6C1AA"/>
<path fill-rule="evenodd" clip-rule="evenodd" d="M515.231 18.4433C516.048 20.0875 516.92 22.6077 517.715 25.8852C519.583 33.5801 520.337 42.4208 520.385 45.1895C520.502 51.8729 518.053 59.3649 514.55 66.3132C512.325 70.7266 514.099 76.1081 518.513 78.333C522.926 80.558 528.307 78.7839 530.532 74.3705C534.639 66.2241 538.471 55.7029 538.281 44.8762C538.213 40.9574 537.325 30.7913 535.109 21.6628C534.022 17.186 532.434 12.1635 530.004 8.20272C527.788 4.58813 522.636 -1.41311 514.35 0.301846C482.97 6.79709 458.655 26.5741 438.917 50.2387C435.751 54.0344 436.262 59.6777 440.058 62.8434C443.853 66.0092 449.497 65.4985 452.662 61.7029C470.4 40.4358 490.618 24.3628 515.231 18.4433ZM514.291 16.9011C514.291 16.8992 514.309 16.9172 514.343 16.9608C514.308 16.9247 514.291 16.9029 514.291 16.9011Z" fill="#F6C1AA"/>
<path fill-rule="evenodd" clip-rule="evenodd" d="M505.438 49.6689C510.079 51.3685 512.464 56.5086 510.764 61.1498C510.226 62.62 509.763 64.0066 509.258 65.5213C508.983 66.3461 508.696 67.2088 508.376 68.1437C506.778 72.8207 501.69 75.3163 497.014 73.7179C492.337 72.1194 489.841 67.0322 491.439 62.3553C491.668 61.6861 491.912 60.9562 492.167 60.1929C492.723 58.5256 493.333 56.6988 493.957 54.9953C495.657 50.3541 500.797 47.9694 505.438 49.6689Z" fill="#F6C1AA"/>
<path fill-rule="evenodd" clip-rule="evenodd" d="M555.017 76.8876C558.523 73.4035 564.189 73.421 567.673 76.9267C567.939 77.1944 568.206 77.4628 568.474 77.732C605.815 115.301 656.847 166.645 665.024 236.166C667.896 260.588 660.549 285.924 654.412 307.085C653.426 310.487 652.471 313.78 651.595 316.944C650.359 321.406 649.139 326.18 647.874 331.127C643.374 348.735 638.311 368.539 630.004 384.261C610.923 420.372 580.788 444.576 551.426 461.325C544.453 465.303 536.128 467.591 529.106 469.521C527.968 469.833 526.865 470.136 525.807 470.436C517.486 472.791 511.266 475.044 506.909 478.843C503.184 482.092 497.531 481.705 494.283 477.98C491.034 474.255 491.421 468.602 495.146 465.354C502.86 458.626 512.733 455.535 520.932 453.214C522.221 452.849 523.471 452.502 524.682 452.165C531.861 450.171 537.7 448.549 542.557 445.779C570.176 430.024 597.232 407.971 614.179 375.899C621.393 362.246 625.719 345.377 630.143 328.129C631.506 322.817 632.877 317.468 634.345 312.167C635.325 308.63 636.342 305.091 637.359 301.553C643.52 280.123 649.66 258.767 647.248 238.257C639.851 175.365 593.217 128.019 554.978 89.5437C551.494 86.0381 551.512 80.3717 555.017 76.8876Z" fill="#F6C1AA"/>
<path fill-rule="evenodd" clip-rule="evenodd" d="M129.505 76.1284C133.431 79.1308 134.18 84.7475 131.178 88.6736C125.957 95.5006 118.347 99.5349 112.291 102.494C110.952 103.148 109.689 103.753 108.495 104.324C103.62 106.655 99.8966 108.435 96.948 110.797C80.8313 123.707 63.8321 141.26 55.6806 162.168C44.6976 190.34 37.0213 231.25 43.4575 260.046C57.0108 320.685 89.9501 372.016 121.877 420.344C122.16 420.773 122.615 421.487 123.215 422.431C125.564 426.124 130.147 433.328 135.458 440.686C138.772 445.278 142.185 449.665 145.278 453.029C146.825 454.712 148.168 456.003 149.272 456.9C150.274 457.714 150.753 457.935 150.75 457.941C150.749 457.942 150.746 457.941 150.741 457.939C155.404 459.497 157.941 464.529 156.411 469.208C154.875 473.906 149.822 476.469 145.124 474.934C142.326 474.019 139.883 472.334 137.983 470.79C135.977 469.159 133.99 467.197 132.101 465.142C128.32 461.028 124.435 455.998 120.944 451.161C115.201 443.204 110.022 435.048 107.872 431.662C107.422 430.955 107.105 430.455 106.943 430.21C75.1635 382.105 40.3562 328.226 25.9899 263.95C18.4559 230.243 27.398 185.438 39.0046 155.667C48.8311 130.462 68.6695 110.516 85.7582 96.8278C90.4914 93.0364 96.5881 90.1457 101.559 87.7885C102.571 87.3091 103.535 86.8517 104.432 86.4133C110.484 83.4561 114.549 80.9543 116.96 77.8008C119.962 73.8747 125.579 73.1259 129.505 76.1284Z" fill="#F6C1AA"/>
<path fill-rule="evenodd" clip-rule="evenodd" d="M303.524 41.375C298.437 41.6231 293.281 41.8746 287.983 42.0724C279.521 42.3885 270.512 44.6931 261.101 47.1007C259.397 47.5368 257.679 47.9762 255.949 48.4079C252.671 49.2256 249.639 50.2064 246.283 51.2918C244.14 51.9849 241.865 52.7207 239.31 53.484C233.294 55.2813 226.433 56.9666 219.253 56.9666C214.311 56.9666 210.304 52.9599 210.304 48.0173C210.304 43.0748 214.311 39.0681 219.253 39.0681C223.784 39.0681 228.64 37.9913 234.187 36.3343C235.91 35.8196 237.833 35.2013 239.849 34.5536C243.689 33.3195 247.862 31.9783 251.616 31.0416C253.097 30.6723 254.645 30.2735 256.25 29.8603C265.56 27.4628 276.75 24.581 287.315 24.1864C292.175 24.0048 297.108 23.765 302.089 23.5227C312.669 23.0081 323.471 22.4828 334.277 22.4828C353.089 22.4828 370.867 23.8721 389.349 26.0351C394.258 26.6097 397.772 31.055 397.197 35.964C396.623 40.8731 392.177 44.3869 387.268 43.8123C369.234 41.7016 352.186 40.3814 334.277 40.3814C323.9 40.3814 313.853 40.8713 303.524 41.375Z" fill="#F6C1AA"/>
<path fill-rule="evenodd" clip-rule="evenodd" d="M406.352 38.7738C407.327 33.9284 412.045 30.7909 416.891 31.7659C429.675 34.3387 440.663 39.0252 448.931 42.5519C449.225 42.6775 449.516 42.8016 449.804 42.9241C454.351 44.8615 456.466 50.1181 454.529 54.6651C452.592 59.2121 447.335 61.3276 442.788 59.3902C442.621 59.3191 442.454 59.2479 442.286 59.1764C433.847 55.5797 424.316 51.5175 413.36 49.3127C408.514 48.3376 405.377 43.6192 406.352 38.7738Z" fill="#F6C1AA"/>
<path fill-rule="evenodd" clip-rule="evenodd" d="M519.335 60.1397C521.321 55.6138 526.6 53.5552 531.126 55.5416C532.739 56.2492 534.224 56.9258 535.645 57.5728C538.394 58.8251 540.9 59.9665 543.611 61.0073C543.88 61.1107 544.292 61.2551 544.946 61.4839C545.158 61.5582 545.396 61.6415 545.663 61.7352C546.638 62.0778 547.847 62.5084 549.053 62.9783C550.222 63.4336 551.594 64.0053 552.84 64.6534C553.461 64.9763 554.22 65.4049 554.972 65.942C555.594 66.3864 556.874 67.3613 557.902 68.9408C558.599 70.0118 559.834 71.2359 561.859 72.6726C563.609 73.9139 565.486 75.0064 567.653 76.2678C568.041 76.4932 568.437 76.7241 568.844 76.9621C573.11 79.4585 574.544 84.9403 572.048 89.2061C569.552 93.4719 564.07 94.9063 559.804 92.41C559.481 92.221 559.14 92.0229 558.784 91.8162C556.645 90.5741 553.972 89.0221 551.503 87.2707C549.004 85.4978 546.259 83.2181 543.994 80.2519C543.617 80.0829 543.137 79.8824 542.554 79.6553C541.643 79.3001 540.668 78.9516 539.731 78.6221C539.571 78.5661 539.404 78.5077 539.233 78.4479C538.519 78.1981 537.74 77.9258 537.194 77.7161C533.981 76.4821 530.62 74.9539 527.598 73.5798C526.301 72.99 525.067 72.4286 523.933 71.931C519.407 69.9447 517.349 64.6655 519.335 60.1397Z" fill="#F6C1AA"/>
<path fill-rule="evenodd" clip-rule="evenodd" d="M160.996 58.7884C161.688 53.8945 166.216 50.488 171.11 51.1798C176.056 51.8788 179.314 55.1252 180.878 56.8134C181.684 57.6836 182.447 58.6104 183.018 59.3032C183.074 59.3715 183.128 59.4375 183.181 59.5009C183.846 60.3079 184.27 60.8065 184.637 61.1837C185.407 61.9753 187.541 64.3475 187.574 68.0568C187.614 72.5266 184.723 75.0904 183.285 76.0421C181.943 76.9303 180.634 77.3128 180.237 77.4289L180.229 77.4311C179.961 77.5096 179.719 77.5715 179.608 77.5997L179.598 77.6022C179.562 77.6114 179.537 77.618 179.52 77.6223C177.638 78.1704 176.678 78.4662 175.816 78.8927C171.386 81.0844 166.018 79.2698 163.826 74.8398C162.51 72.1782 162.639 69.1781 163.913 66.7317C161.75 64.8067 160.561 61.8701 160.996 58.7884ZM171.762 73.6172C171.778 73.6338 171.794 73.6504 171.81 73.6669C171.808 73.6643 171.805 73.6614 171.802 73.6582C171.791 73.6476 171.778 73.6339 171.762 73.6172Z" fill="#F6C1AA"/>
<path fill-rule="evenodd" clip-rule="evenodd" d="M507.362 63.2706C508.611 61.5716 509.268 59.4266 509.062 57.161C508.615 52.2387 504.262 48.6112 499.34 49.0587C496.533 49.3138 494.004 50.4285 492.341 51.3091C490.541 52.2619 488.749 53.4828 487.316 54.7726C485.846 56.0948 484.643 58.0445 484.339 60.4598C484.06 62.6746 484.642 64.4526 485.121 65.4967C485.981 67.3723 487.271 68.5339 487.692 68.9079C488.789 69.8821 490.04 70.6315 490.794 71.061C492.36 71.9536 494.432 72.9367 495.726 73.3679C500.415 74.9309 505.483 72.3968 507.046 67.7079C507.54 66.2258 507.625 64.7058 507.362 63.2706Z" fill="#F6C1AA"/>
<path fill-rule="evenodd" clip-rule="evenodd" d="M521.652 238.922C526.106 241.066 527.978 246.414 525.833 250.867C521.676 259.501 517.084 267.79 511.688 275.883C508.947 279.996 503.39 281.107 499.278 278.365C495.166 275.624 494.054 270.067 496.796 265.955C501.655 258.666 505.847 251.12 509.707 243.103C511.851 238.65 517.199 236.778 521.652 238.922Z" fill="#F6C1AA"/>
<path fill-rule="evenodd" clip-rule="evenodd" d="M536.604 268.864C540.836 267.234 543.23 262.631 542.011 258.161C540.71 253.392 535.791 250.581 531.022 251.882C526.778 253.039 523.985 255.861 522.328 258.066C520.634 260.321 519.52 262.736 518.824 264.476C516.988 269.065 519.221 274.273 523.81 276.109C528.399 277.945 533.607 275.713 535.442 271.123C535.636 270.64 535.843 270.178 536.062 269.76C536.267 269.367 536.453 269.071 536.604 268.864Z" fill="#F6C1AA"/>
<path fill-rule="evenodd" clip-rule="evenodd" d="M553.761 270.729C557.754 268.897 559.889 264.356 558.59 260.027C557.17 255.293 552.181 252.607 547.447 254.027C543.481 255.217 540.825 258.298 539.79 259.511C539.119 260.298 538.501 261.098 538.054 261.676C538.037 261.699 538.02 261.721 538.003 261.743C537.472 262.431 537.235 262.729 537.086 262.897C533.802 266.591 534.135 272.248 537.829 275.531C541.523 278.815 547.18 278.482 550.463 274.788C551.074 274.101 551.684 273.311 552.1 272.772C552.124 272.742 552.146 272.712 552.168 272.684C552.665 272.04 553.041 271.557 553.408 271.126C553.546 270.964 553.663 270.834 553.761 270.729Z" fill="#F6C1AA"/>
<path fill-rule="evenodd" clip-rule="evenodd" d="M134.272 242.451C136.555 240.565 137.854 237.589 137.46 234.434C136.847 229.529 132.374 226.05 127.469 226.663C122.784 227.249 120.157 230.435 118.958 232.499C117.799 234.496 117.236 236.621 116.926 237.982C116.656 239.165 116.442 240.436 116.293 241.323C116.262 241.504 116.235 241.669 116.21 241.814C116.081 242.562 116.01 242.856 116.008 242.888C114.358 247.412 116.591 252.458 121.093 254.259C125.682 256.094 130.891 253.862 132.726 249.273C133.112 248.309 133.342 247.382 133.481 246.759C133.63 246.091 133.752 245.414 133.847 244.858C133.895 244.582 133.938 244.327 133.979 244.088C134.087 243.453 134.174 242.936 134.272 242.451Z" fill="#F6C1AA"/>
<path fill-rule="evenodd" clip-rule="evenodd" d="M176.959 238.23C177.772 243.105 174.478 247.716 169.603 248.529C169.374 248.567 168.45 248.871 166.875 250.18C165.398 251.409 163.938 253.026 162.633 254.657C159.545 258.517 153.913 259.142 150.054 256.055C146.194 252.967 145.569 247.336 148.656 243.476C150.323 241.392 152.642 238.737 155.433 236.417C158.127 234.178 161.96 231.657 166.66 230.874C171.536 230.061 176.147 233.355 176.959 238.23Z" fill="#F6C1AA"/>
<path fill-rule="evenodd" clip-rule="evenodd" d="M198.546 247.491C199.99 252.218 197.329 257.221 192.603 258.665C189.101 259.735 185.988 261.794 181.424 264.837C177.311 267.579 171.755 266.467 169.013 262.355C166.272 258.242 167.383 252.686 171.495 249.944C171.726 249.791 171.961 249.633 172.201 249.473C176.146 246.834 181.257 243.416 187.372 241.548C192.099 240.104 197.102 242.765 198.546 247.491Z" fill="#F6C1AA"/>
<path d="M231.178 133.802L202.02 137.964L194.865 143.745L187.892 176.308L191.405 201.322L228.202 208.667L253.424 184.524L252.709 158.873L243.648 136.803L231.178 133.802Z" fill="white"/>
<path d="M231.178 133.802L202.02 137.964L194.865 143.745L187.892 176.308L191.405 201.322L228.202 208.667L253.424 184.524L252.709 158.873L243.648 136.803L231.178 133.802Z" fill="white"/>
<path d="M231.178 133.802L202.02 137.964L194.865 143.745L187.892 176.308L191.405 201.322L228.202 208.667L253.424 184.524L252.709 158.873L243.648 136.803L231.178 133.802Z" fill="white"/>
<path d="M231.178 133.802L202.02 137.964L194.865 143.745L187.892 176.308L191.405 201.322L228.202 208.667L253.424 184.524L252.709 158.873L243.648 136.803L231.178 133.802Z" fill="white"/>
<path d="M231.178 133.802L202.02 137.964L194.865 143.745L187.892 176.308L191.405 201.322L228.202 208.667L253.424 184.524L252.709 158.873L243.648 136.803L231.178 133.802Z" fill="white"/>
<path fill-rule="evenodd" clip-rule="evenodd" d="M231.201 133.266L244.031 136.353L253.23 158.762L253.955 184.742L228.366 209.236L190.934 201.765L187.356 176.287L194.388 143.452L201.8 137.462L231.201 133.266ZM202.236 138.464L195.339 144.037L188.425 176.326L191.872 200.878L228.034 208.096L252.889 184.305L252.183 158.983L243.262 137.25L231.15 134.336L202.236 138.464Z" fill="#F6C1AA"/>
<path fill-rule="evenodd" clip-rule="evenodd" d="M232.391 146.482C219.027 146.257 209.317 147.147 199.695 153.248C196.727 155.13 195.22 157.133 194.377 159.091C193.483 161.167 193.092 163.773 193.284 167.107C193.614 172.823 195.425 178.81 197.452 185.515C197.972 187.233 198.506 188.999 199.033 190.82C199.453 192.27 199.489 193.74 199.202 195.121C200.577 195.545 202.128 195.941 203.873 196.331C210.264 197.761 217.039 199.239 223.432 199.383C229.845 199.529 234.413 198.282 237.427 195.665C241.89 191.789 244.746 185.149 245.36 177.075C245.972 169.035 244.228 160.934 241.097 155.359C238.941 151.519 237.633 149.382 236.218 147.995C235.255 147.05 234.327 146.514 232.391 146.482ZM178.827 185.728C177.241 180.18 175.754 174.013 175.415 168.139C175.117 162.972 175.622 157.39 177.937 152.013C180.303 146.519 184.317 141.806 190.11 138.133C204.366 129.092 218.576 128.349 232.691 128.586C239.509 128.7 244.735 131.278 248.749 135.215C252.231 138.629 254.693 143.014 256.572 146.361C256.616 146.439 256.659 146.517 256.703 146.594C261.791 155.653 264.05 167.365 263.207 178.434C262.367 189.47 258.311 201.235 249.163 209.179C241.316 215.993 231.456 217.468 223.027 217.277C214.672 217.088 206.284 215.212 200.172 213.844L199.966 213.798C194.399 212.553 185.984 210.443 179.78 204.239C178.07 202.529 177.329 200.602 176.997 199.577C176.633 198.45 176.447 197.384 176.343 196.715C176.287 196.355 176.24 196.01 176.204 195.746L176.189 195.63C176.158 195.401 176.137 195.243 176.114 195.091C176.106 195.039 176.1 194.995 176.094 194.96C175.106 191.531 176.267 187.952 178.827 185.728ZM176.073 194.842C176.073 194.841 176.074 194.845 176.076 194.853C176.074 194.846 176.073 194.842 176.073 194.842Z" fill="#F6C1AA"/>
<path fill-rule="evenodd" clip-rule="evenodd" d="M202.927 173.055C201.26 172.515 199.733 171.482 198.587 169.986C195.58 166.063 196.323 160.446 200.246 157.439C202.9 155.405 206.423 153.278 210.027 151.557C213.524 149.886 217.828 148.244 221.944 147.748C225.33 147.34 233.476 147.327 236.898 155.145C238.175 158.062 238.192 161.055 237.807 163.577C239.23 167.842 239.305 172.319 238.443 176.495C238.419 176.825 238.387 177.146 238.347 177.455C237.74 182.208 235.354 187.036 231.587 190.584C230.085 191.998 228.327 193.236 226.353 194.176C224.002 195.615 221.335 196.679 218.372 197.192C213.773 197.988 207.977 197.696 203.784 193.373C199.706 189.168 199.693 183.749 200.286 180.378C200.739 177.802 201.698 175.299 202.927 173.055Z" fill="#F6C1AA"/>
<path fill-rule="evenodd" clip-rule="evenodd" d="M452.624 134.477C452.363 134.47 451.529 134.528 448.784 135.651C440.506 139.037 432.903 145.108 427.933 152.47C421.225 162.409 421.03 175.687 425.844 187.634C427.302 187.632 428.781 187.987 430.15 188.738C431.346 189.394 432.445 190.008 433.466 190.578C439.553 193.98 442.876 195.838 447.628 195.838C450.638 195.838 453.588 196.037 456.201 196.214L456.325 196.223C459.069 196.408 461.458 196.567 463.805 196.567C469.522 196.567 474.786 194.157 478.417 189.907C482.699 184.893 483.927 175.344 481.319 167.382C480.486 164.84 478.904 162.406 476.463 159.473C475.47 158.279 474.446 157.13 473.309 155.854C473.029 155.54 472.743 155.219 472.448 154.888C471.018 153.277 469.442 151.474 467.956 149.534C463.318 143.481 459.803 139.056 454.87 135.628C453.942 134.983 453.364 134.705 453.048 134.583C452.784 134.481 452.677 134.479 452.626 134.477L452.624 134.477ZM427.792 207.952C433.136 210.844 439.721 213.736 447.628 213.736C449.98 213.736 452.373 213.895 455.116 214.08L455.246 214.089C457.857 214.266 460.802 214.465 463.805 214.465C474.653 214.465 484.928 209.842 492.026 201.531C501.524 190.412 502.25 173.782 498.328 161.811C496.459 156.103 493.211 151.616 490.221 148.023C489.014 146.573 487.738 145.142 486.586 143.849C486.327 143.56 486.075 143.277 485.831 143.002C484.437 141.433 483.229 140.039 482.164 138.648L482.07 138.526C477.622 132.721 472.578 126.138 465.084 120.93C461.526 118.458 457.668 116.71 453.113 116.585C448.884 116.47 445.106 117.817 442.007 119.085C430.577 123.761 420.12 132.053 413.098 142.456L420.516 147.463L413.098 142.456C399.645 162.387 403.628 187.776 415.038 205.525C417.711 209.683 423.248 210.887 427.406 208.214C427.537 208.129 427.666 208.042 427.792 207.952Z" fill="#F6C1AA"/>
<path fill-rule="evenodd" clip-rule="evenodd" d="M448.138 147.871C446.884 146.454 445.173 145.421 443.173 145.026C438.324 144.068 433.617 147.222 432.659 152.07C432.532 152.712 432.396 153.372 432.256 154.047C431.471 157.849 430.587 162.13 430.766 166.182C430.802 166.986 430.875 167.775 430.985 168.55C429.039 171.253 428.618 174.484 429.275 177.367C430.513 182.795 434.057 185.77 437.273 187.375C438.069 187.773 438.87 188.1 439.561 188.361C440.219 188.831 441.016 189.293 441.945 189.634C442.728 189.921 443.801 190.19 445.044 190.212C445.479 190.278 445.916 190.312 446.349 190.313C450.119 192.345 454.399 193.28 458.898 192.273C468.866 190.044 472.664 180.3 472.664 171.063C472.664 170.867 472.666 170.636 472.667 170.374C472.683 168.05 472.714 163.286 471.836 158.966C471.347 156.562 470.417 153.385 468.374 150.61C466.073 147.483 462.38 144.974 457.462 144.858C454.38 144.786 451.24 145.553 448.545 147.556C448.406 147.659 448.27 147.764 448.138 147.871Z" fill="#F6C1AA"/>
</g>
<defs>
<clipPath id="clip0_1208_943">
<rect width="690.11" height="768" fill="white" transform="translate(0.890625 0.000335693)"/>
</clipPath>
</defs>
</svg>
