<svg width="691" height="567" viewBox="0 0 691 567" fill="none" xmlns="http://www.w3.org/2000/svg">
<g clip-path="url(#clip0_489_14145)">
<path d="M40.3361 286.591L57.2386 326.143L60.3045 796.905L649.674 780.463L648.743 310.695L652.867 213.152L617.369 148.84L558.555 79.3858L524.013 68.2369L531.172 41.7056L522.383 9.82619L505.632 13.4533L453.482 50.7192L421.718 44.7592L378.638 29.6354L288.654 32.1458L220.7 50.3672L162.797 13.5385L140.147 69.9935L123.66 83.0926L73.0882 120.314L31.7606 205.729L40.3361 286.591Z" fill="#FDEEB8"/>
<path d="M461.794 132.643L432.636 136.805L425.482 142.586L418.509 175.149L422.021 200.164L458.818 207.508L484.04 183.366L483.325 157.715L474.265 135.644L461.794 132.643Z" fill="white"/>
<path d="M461.794 132.643L432.636 136.805L425.482 142.586L418.509 175.149L422.021 200.164L458.818 207.508L484.04 183.366L483.325 157.715L474.265 135.644L461.794 132.643Z" fill="white"/>
<path d="M461.794 132.643L432.636 136.805L425.482 142.586L418.509 175.149L422.021 200.164L458.818 207.508L484.04 183.366L483.325 157.715L474.265 135.644L461.794 132.643Z" fill="white"/>
<path d="M461.794 132.643L432.636 136.805L425.482 142.586L418.509 175.149L422.021 200.164L458.818 207.508L484.04 183.366L483.325 157.715L474.265 135.644L461.794 132.643Z" fill="white"/>
<path d="M461.794 132.643L432.636 136.805L425.482 142.586L418.509 175.149L422.021 200.164L458.818 207.508L484.04 183.366L483.325 157.715L474.265 135.644L461.794 132.643Z" fill="white"/>
<path fill-rule="evenodd" clip-rule="evenodd" d="M309.459 270.288C308.859 270.37 308.276 270.45 307.712 270.528C305.9 270.777 304.29 270.998 302.973 271.177C298.075 271.841 294.644 276.35 295.308 281.248C295.717 284.263 297.583 286.722 300.1 288.013C300.846 290.573 302.568 292.327 303.484 293.077C305.004 294.322 306.674 295.006 307.639 295.363C309.778 296.154 312.323 296.694 314.389 297.065C316.577 297.458 318.77 297.754 320.435 297.955C321.277 298.057 322.002 298.137 322.546 298.195C322.748 298.216 323.725 298.316 323.54 298.297C323.559 298.299 323.58 298.301 323.603 298.303C324.649 298.415 330.111 298.995 335.059 298.767C337.263 298.665 341.01 298.37 344.111 296.789C345.662 295.999 348.293 294.248 349.561 290.882C353.03 288.706 356.503 285.869 358.94 282.327C359.983 280.811 361.55 277.649 360.378 273.75C359.272 270.072 356.478 268.34 355.175 267.687C352.686 266.44 349.879 266.241 348.546 266.167C345.183 265.981 341.236 266.313 339.289 266.502C336.851 266.739 333.758 267.097 330.377 267.515C327.04 266.212 323.336 265.312 319.716 265.489C316.475 265.647 312.284 266.711 309.459 270.288Z" fill="#F6C1AA"/>
<path fill-rule="evenodd" clip-rule="evenodd" d="M431.917 292.716C431.811 295.539 430.533 298.209 429.733 299.795C420.513 318.063 399.491 331.853 379.493 336.673C362.965 340.657 347.626 335.954 334.867 330.354C330.352 328.372 326.38 325.782 323.369 321.947C321.404 319.443 320.098 316.728 319.21 313.907C316.517 316.836 313.456 320.128 309.899 323.158C303.662 328.471 297.085 330.678 290.123 330.543C283.761 330.42 277.537 328.311 272.06 326.335C263.918 323.396 256.37 319.142 249.595 315.324C247.507 314.147 245.493 313.012 243.557 311.969C239.205 309.625 237.578 304.197 239.922 299.846C242.266 295.495 247.693 293.867 252.045 296.211C254.633 297.605 257.05 298.966 259.373 300.273C265.815 303.899 271.528 307.114 278.136 309.499C283.787 311.538 287.431 312.589 290.471 312.648C292.91 312.695 295.269 312.109 298.293 309.533C300.94 307.278 303.348 304.714 306.08 301.742C306.277 301.528 306.477 301.31 306.678 301.091C309.117 298.434 311.866 295.44 314.938 292.648C314.984 292.599 315.074 292.502 315.222 292.339L315.254 292.305C315.544 291.987 316.007 291.48 316.51 290.973C317.002 290.478 317.766 289.744 318.682 289.073C319.147 288.732 319.815 288.286 320.646 287.891C321.429 287.519 322.779 286.987 324.514 286.902C328.141 286.725 330.571 288.64 331.652 289.769C332.706 290.87 333.272 291.996 333.531 292.554C334.078 293.739 334.371 294.923 334.529 295.631C334.88 297.203 335.117 299.042 335.281 300.562C335.453 302.157 335.581 303.743 335.671 304.923C335.703 305.341 335.72 305.573 335.735 305.779C335.748 305.958 335.76 306.117 335.778 306.363C335.783 306.418 335.786 306.467 335.79 306.509C336.253 308.974 336.867 310.154 337.448 310.894C338.062 311.677 339.237 312.725 342.061 313.964C353.682 319.065 364.54 321.866 375.299 319.273C388.482 316.095 401.417 308.157 409.194 298.646C406.782 294.449 408.148 289.071 412.308 286.543C412.398 286.489 412.491 286.432 412.587 286.373C413.472 285.835 414.596 285.15 415.638 284.589L415.677 284.568C416.492 284.128 418.66 282.959 421.111 282.68C422.426 282.531 425.737 282.416 428.66 284.975C431.709 287.645 431.977 291.122 431.917 292.716ZM317.024 299.382C317.024 299.382 317.028 299.397 317.037 299.431C317.028 299.4 317.023 299.383 317.024 299.382ZM414.235 290.684C414.255 290.619 414.261 290.611 414.24 290.67C414.238 290.675 414.237 290.679 414.235 290.684Z" fill="#F6C1AA"/>
<path fill-rule="evenodd" clip-rule="evenodd" d="M279.279 323.028C284.049 321.734 288.965 324.552 290.259 329.322C290.947 331.858 291.774 334.658 292.825 337.228C293.926 339.917 294.998 341.656 295.852 342.541C296.307 343.014 297.564 343.853 300.16 344.787C302.389 345.588 304.768 346.182 307.275 346.808C307.563 346.879 307.852 346.951 308.143 347.024C317.541 349.381 324.666 350.514 329.928 347.916C332.043 346.871 334.124 344.966 336.379 342.052C338 339.955 339.317 337.9 340.774 335.628C341.467 334.546 342.193 333.414 342.998 332.205C343.189 331.917 343.384 331.643 343.535 331.43C343.609 331.326 343.685 331.22 343.754 331.124L343.766 331.108C343.84 331.004 343.909 330.909 343.977 330.814C344.206 330.493 344.376 330.246 344.509 330.039C345.274 325.873 348.924 322.716 353.311 322.716C358.254 322.716 362.261 326.722 362.261 331.665C362.261 335.303 360.49 338.23 359.818 339.317C359.355 340.066 358.886 340.734 358.548 341.208C358.393 341.425 358.279 341.583 358.192 341.705C358.04 341.916 357.967 342.018 357.897 342.124C357.429 342.825 356.897 343.655 356.312 344.566C354.689 347.097 352.665 350.25 350.536 353.002C347.502 356.925 343.434 361.209 337.852 363.965C325.813 369.909 312.131 366.477 303.833 364.396L303.789 364.385C303.522 364.318 303.24 364.248 302.946 364.175C300.535 363.576 297.246 362.759 294.103 361.629C290.687 360.401 286.303 358.425 282.965 354.963L289.408 348.752L282.965 354.963C279.799 351.678 277.691 347.504 276.26 344.007C274.78 340.39 273.724 336.731 272.985 334.008C271.691 329.237 274.509 324.322 279.279 323.028Z" fill="#F6C1AA"/>
<path fill-rule="evenodd" clip-rule="evenodd" d="M316.464 234.48C311.724 234.932 306.663 235.415 302.116 235.537C297.175 235.671 293.062 231.774 292.928 226.833C292.795 221.892 296.692 217.779 301.633 217.645C305.63 217.537 309.537 217.16 313.818 216.747C316.345 216.503 319.002 216.246 321.886 216.025C329.128 215.469 337.188 215.223 345 216.848C345.224 216.894 345.455 216.941 345.69 216.99C348.641 217.596 352.393 218.367 355.551 220.11C359.775 222.442 362.281 225.954 364.072 230.146C366.014 234.691 363.904 239.95 359.358 241.892C354.813 243.833 349.555 241.723 347.613 237.178C347.221 236.261 346.959 235.879 346.869 235.763C346.738 235.695 346.365 235.531 345.478 235.292C344.465 235.018 343.232 234.761 341.357 234.371C336.1 233.278 330.102 233.346 323.256 233.871C321.143 234.033 318.844 234.253 316.464 234.48Z" fill="#F6C1AA"/>
<path fill-rule="evenodd" clip-rule="evenodd" d="M168.954 21.8334C168.751 22.1899 168.551 22.5486 168.355 22.9029C168.228 23.133 168.085 23.3968 167.936 23.6692C167.608 24.2706 167.258 24.9136 167.018 25.3264C165.538 27.8749 164.389 30.4854 163.401 33.3869C162.555 35.8703 161.819 38.3077 161.033 40.9078C160.749 41.8466 160.459 42.8067 160.155 43.7977C159.045 47.4174 157.798 51.2812 156.187 55.1779C153.4 61.9201 151.296 67.3473 150.367 73.2798C149.604 78.163 145.026 81.5022 140.142 80.7383C135.259 79.9743 131.92 75.3964 132.684 70.5133C133.979 62.2359 136.883 55.0229 139.646 48.3395C140.926 45.2457 141.975 42.0343 143.043 38.5498C143.299 37.7169 143.559 36.8552 143.825 35.9735C144.636 33.2901 145.503 30.4219 146.458 27.6172C147.77 23.7631 149.385 20.0501 151.539 16.339C151.559 16.3053 151.627 16.1813 151.732 15.9882C152.241 15.0535 153.631 12.5016 154.716 10.7623C155.471 9.55234 156.438 8.11018 157.543 6.82056C158.335 5.89543 160.426 3.52577 163.657 2.53061C165.934 1.8293 167.923 2.14121 168.72 2.28868C169.736 2.4768 170.638 2.77317 171.302 3.01887C172.646 3.51603 173.977 4.1703 175.007 4.7108C176.085 5.27654 177.085 5.85064 177.81 6.27708C178.169 6.4883 178.474 6.67084 178.685 6.79706L178.697 6.80427C178.753 6.83762 178.797 6.86396 178.831 6.88423C184.654 9.93099 190.93 13.2257 196.848 17.1026C205.789 22.9596 213.602 29.9223 220.701 36.7649C224.905 40.8169 229.175 45.1897 231.542 52.6476C233.037 57.3586 230.43 62.3896 225.719 63.8847C221.008 65.3798 215.977 62.7729 214.482 58.0619C213.547 55.1181 212.125 53.3581 208.279 49.6513C201.481 43.0984 194.602 37.0283 187.04 32.0746C181.912 28.715 176.341 25.7822 170.353 22.6488C170.174 22.5552 170.027 22.4706 169.983 22.445L169.981 22.444C169.913 22.4052 169.85 22.3681 169.803 22.3402C169.713 22.2869 169.606 22.2227 169.51 22.1652L169.499 22.1586C169.341 22.0639 169.159 21.9551 168.954 21.8334Z" fill="#F6C1AA"/>
<path fill-rule="evenodd" clip-rule="evenodd" d="M166.699 51.35C171.497 50.1618 176.349 53.0879 177.538 57.8855C177.775 58.8449 177.973 59.4766 178.222 60.2732C178.433 60.948 178.682 61.7411 179.023 62.9521C179.602 65.0087 180.253 67.7391 180.253 70.8023C180.253 75.7449 176.246 79.7516 171.304 79.7516C166.361 79.7516 162.354 75.7449 162.354 70.8023C162.354 70.1891 162.221 69.3185 161.794 67.8024C161.712 67.5112 161.565 67.0289 161.389 66.4487C161.001 65.1715 160.469 63.42 160.164 62.1882C158.976 57.3906 161.902 52.5382 166.699 51.35Z" fill="#F6C1AA"/>
<path fill-rule="evenodd" clip-rule="evenodd" d="M515.231 18.4435C516.048 20.0877 516.92 22.6079 517.715 25.8853C519.583 33.5802 520.337 42.421 520.385 45.1896C520.502 51.873 518.053 59.365 514.55 66.3133C512.325 70.7268 514.099 76.1082 518.513 78.3332C522.926 80.5582 528.307 78.7841 530.532 74.3707C534.639 66.2242 538.471 55.7031 538.281 44.8764C538.213 40.9576 537.325 30.7915 535.109 21.663C534.022 17.1861 532.434 12.1636 530.004 8.20287C527.788 4.58829 522.636 -1.41296 514.35 0.301998C482.97 6.79724 458.655 26.5742 438.917 50.2389C435.751 54.0345 436.262 59.6778 440.058 62.8436C443.853 66.0093 449.497 65.4987 452.662 61.7031C470.4 40.4359 490.618 24.3629 515.231 18.4435ZM514.291 16.9012C514.291 16.8994 514.309 16.9174 514.343 16.961C514.308 16.9249 514.291 16.9031 514.291 16.9012Z" fill="#F6C1AA"/>
<path fill-rule="evenodd" clip-rule="evenodd" d="M505.438 49.6692C510.079 51.3687 512.464 56.5089 510.764 61.15C510.226 62.6203 509.763 64.0069 509.258 65.5216C508.983 66.3464 508.696 67.2091 508.376 68.144C506.778 72.821 501.69 75.3166 497.014 73.7181C492.337 72.1197 489.841 67.0325 491.439 62.3556C491.668 61.6863 491.912 60.9565 492.167 60.1931C492.723 58.5259 493.333 56.6991 493.957 54.9956C495.657 50.3544 500.797 47.9697 505.438 49.6692Z" fill="#F6C1AA"/>
<path fill-rule="evenodd" clip-rule="evenodd" d="M555.017 76.8878C558.523 73.4037 564.189 73.4212 567.673 76.9269C567.939 77.1946 568.206 77.463 568.474 77.7322C605.815 115.301 656.847 166.645 665.024 236.166C667.896 260.589 660.549 285.924 654.412 307.086C653.426 310.487 652.471 313.78 651.595 316.945C650.359 321.406 649.139 326.18 647.874 331.127C643.374 348.735 638.311 368.539 630.004 384.261C610.923 420.372 580.788 444.576 551.426 461.326C544.453 465.303 536.128 467.591 529.106 469.521C527.968 469.833 526.865 470.137 525.807 470.436C517.486 472.792 511.266 475.044 506.909 478.844C503.184 482.092 497.531 481.706 494.283 477.98C491.034 474.255 491.421 468.602 495.146 465.354C502.86 458.626 512.733 455.535 520.932 453.214C522.221 452.849 523.471 452.502 524.682 452.166C531.861 450.171 537.7 448.549 542.557 445.779C570.176 430.024 597.232 407.971 614.179 375.899C621.393 362.247 625.719 345.377 630.143 328.129C631.506 322.817 632.877 317.469 634.345 312.168C635.325 308.63 636.342 305.091 637.359 301.554C643.52 280.123 649.66 258.768 647.248 238.257C639.851 175.365 593.217 128.019 554.978 89.5439C551.494 86.0382 551.512 80.3719 555.017 76.8878Z" fill="#F6C1AA"/>
<path fill-rule="evenodd" clip-rule="evenodd" d="M129.505 76.1285C133.431 79.1309 134.18 84.7476 131.178 88.6737C125.957 95.5007 118.347 99.535 112.291 102.495C110.952 103.149 109.689 103.753 108.495 104.324C103.62 106.655 99.8966 108.436 96.948 110.797C80.8313 123.707 63.8321 141.26 55.6806 162.169C44.6976 190.34 37.0213 231.25 43.4575 260.046C57.0108 320.685 89.9501 372.016 121.877 420.344C122.16 420.773 122.615 421.487 123.215 422.431C125.564 426.124 130.147 433.329 135.458 440.686C138.772 445.278 142.185 449.665 145.278 453.029C146.825 454.712 148.168 456.003 149.272 456.9C150.274 457.715 150.753 457.935 150.75 457.941C150.749 457.942 150.746 457.941 150.741 457.939C155.404 459.497 157.941 464.529 156.411 469.208C154.875 473.906 149.822 476.47 145.124 474.934C142.326 474.019 139.883 472.334 137.983 470.79C135.977 469.16 133.99 467.197 132.101 465.142C128.32 461.029 124.435 455.998 120.944 451.161C115.201 443.204 110.022 435.049 107.872 431.662C107.422 430.955 107.105 430.456 106.943 430.21C75.1635 382.105 40.3562 328.226 25.9899 263.95C18.4559 230.243 27.398 185.438 39.0046 155.667C48.8311 130.462 68.6695 110.516 85.7582 96.8279C90.4914 93.0366 96.5881 90.1458 101.559 87.7887C102.571 87.3092 103.535 86.8518 104.432 86.4134C110.484 83.4562 114.549 80.9544 116.96 77.801C119.962 73.8749 125.579 73.1261 129.505 76.1285Z" fill="#F6C1AA"/>
<path fill-rule="evenodd" clip-rule="evenodd" d="M327.782 380.642C331.718 383.632 332.485 389.246 329.496 393.182C326.068 397.696 322.254 401.333 317.363 403.983C312.55 406.59 307.261 407.932 301.356 408.706C293.268 409.765 286.144 408.035 280.032 405.712C277.004 404.562 274.117 403.223 271.481 401.966C270.848 401.664 270.235 401.369 269.637 401.082C267.651 400.128 265.827 399.251 263.958 398.431C259.432 396.445 257.373 391.166 259.36 386.64C261.346 382.114 266.625 380.055 271.151 382.042C273.329 382.998 275.525 384.053 277.558 385.03C278.114 385.297 278.659 385.559 279.187 385.811C281.745 387.031 284.082 388.104 286.389 388.981C290.948 390.713 294.937 391.495 299.031 390.959C303.714 390.345 306.643 389.433 308.836 388.245C310.951 387.1 312.931 385.399 315.242 382.356C318.231 378.42 323.845 377.653 327.782 380.642Z" fill="#F6C1AA"/>
<path fill-rule="evenodd" clip-rule="evenodd" d="M468.487 418.594C470.984 422.86 469.549 428.342 465.283 430.838C460.359 433.72 455.392 436.732 450.355 439.788C423.292 456.203 394.195 473.851 358.666 479.093C324.179 484.181 284.72 477.487 253.409 466.989C241.324 462.938 231.876 455.642 223.706 449.149C223.218 448.762 222.735 448.377 222.257 447.996C214.387 441.731 207.683 436.395 199.695 433.002C195.146 431.069 193.024 425.815 194.957 421.266C196.889 416.717 202.143 414.595 206.692 416.528C217.026 420.917 225.557 427.727 233.02 433.685C233.635 434.175 234.242 434.66 234.842 435.137C243.073 441.679 250.325 447.078 259.098 450.019C288.765 459.965 325.256 465.93 356.053 461.386C387.696 456.718 413.271 441.26 440.356 424.889C445.578 421.733 450.855 418.543 456.243 415.39C460.509 412.894 465.991 414.328 468.487 418.594Z" fill="#F6C1AA"/>
<path fill-rule="evenodd" clip-rule="evenodd" d="M303.524 41.3751C298.437 41.6232 293.281 41.8747 287.983 42.0725C279.521 42.3886 270.512 44.6932 261.101 47.1008C259.397 47.5369 257.679 47.9763 255.949 48.4079C252.671 49.2257 249.639 50.2065 246.283 51.2919C244.14 51.985 241.865 52.7208 239.31 53.4841C233.294 55.2814 226.433 56.9667 219.253 56.9667C214.311 56.9667 210.304 52.96 210.304 48.0174C210.304 43.0749 214.311 39.0682 219.253 39.0682C223.784 39.0682 228.64 37.9914 234.187 36.3344C235.91 35.8197 237.833 35.2014 239.849 34.5537C243.689 33.3196 247.862 31.9784 251.616 31.0417C253.097 30.6724 254.645 30.2736 256.25 29.8604C265.56 27.4628 276.75 24.5811 287.315 24.1865C292.175 24.0049 297.108 23.7651 302.089 23.5228C312.669 23.0082 323.471 22.4829 334.277 22.4829C353.089 22.4829 370.867 23.8722 389.349 26.0352C394.258 26.6098 397.772 31.0551 397.197 35.9641C396.623 40.8732 392.177 44.387 387.268 43.8124C369.234 41.7017 352.186 40.3815 334.277 40.3815C323.9 40.3815 313.853 40.8714 303.524 41.3751Z" fill="#F6C1AA"/>
<path fill-rule="evenodd" clip-rule="evenodd" d="M406.352 38.7739C407.327 33.9284 412.045 30.7909 416.891 31.766C429.675 34.3387 440.663 39.0253 448.931 42.552C449.225 42.6775 449.516 42.8016 449.804 42.9241C454.351 44.8615 456.466 50.1182 454.529 54.6652C452.592 59.2122 447.335 61.3277 442.788 59.3903C442.621 59.3192 442.454 59.2479 442.286 59.1765C433.847 55.5797 424.316 51.5176 413.36 49.3128C408.514 48.3377 405.377 43.6193 406.352 38.7739Z" fill="#F6C1AA"/>
<path fill-rule="evenodd" clip-rule="evenodd" d="M519.335 60.1401C521.321 55.6142 526.6 53.5556 531.126 55.5419C532.739 56.2496 534.224 56.9262 535.645 57.5732C538.394 58.8255 540.9 59.9669 543.611 61.0077C543.88 61.1111 544.292 61.2555 544.946 61.4843C545.158 61.5586 545.396 61.6419 545.663 61.7356C546.638 62.0782 547.847 62.5088 549.053 62.9787C550.222 63.434 551.594 64.0056 552.84 64.6538C553.461 64.9767 554.22 65.4053 554.972 65.9424C555.594 66.3868 556.874 67.3617 557.902 68.9412C558.599 70.0121 559.834 71.2363 561.859 72.673C563.609 73.9143 565.486 75.0068 567.653 76.2682C568.041 76.4936 568.437 76.7245 568.844 76.9625C573.11 79.4589 574.544 84.9406 572.048 89.2065C569.552 93.4723 564.07 94.9067 559.804 92.4104C559.481 92.2214 559.14 92.0233 558.784 91.8166C556.645 90.5745 553.972 89.0225 551.503 87.2711C549.004 85.4982 546.259 83.2184 543.994 80.2523C543.617 80.0833 543.137 79.8827 542.554 79.6556C541.643 79.3005 540.668 78.952 539.731 78.6225C539.571 78.5665 539.404 78.5081 539.233 78.4483C538.519 78.1985 537.74 77.9262 537.194 77.7165C533.981 76.4825 530.62 74.9543 527.598 73.5802C526.301 72.9904 525.067 72.429 523.933 71.9314C519.407 69.9451 517.349 64.6659 519.335 60.1401Z" fill="#F6C1AA"/>
<path fill-rule="evenodd" clip-rule="evenodd" d="M160.996 58.7887C161.688 53.8948 166.216 50.4883 171.11 51.18C176.056 51.8791 179.314 55.1255 180.878 56.8137C181.684 57.6838 182.447 58.6107 183.018 59.3035C183.074 59.3717 183.128 59.4377 183.181 59.5012C183.846 60.3082 184.27 60.8067 184.637 61.184C185.407 61.9756 187.541 64.3477 187.574 68.0571C187.614 72.5268 184.723 75.0907 183.285 76.0424C181.943 76.9306 180.634 77.3131 180.237 77.4292L180.229 77.4314C179.961 77.5098 179.719 77.5718 179.608 77.6L179.598 77.6025C179.562 77.6117 179.537 77.6182 179.52 77.6226C177.638 78.1707 176.678 78.4664 175.816 78.8929C171.386 81.0846 166.018 79.2701 163.826 74.84C162.51 72.1785 162.639 69.1784 163.913 66.7319C161.75 64.8069 160.561 61.8703 160.996 58.7887ZM171.762 73.6175C171.778 73.6341 171.794 73.6507 171.81 73.6672C171.808 73.6646 171.805 73.6617 171.802 73.6585C171.791 73.6479 171.778 73.6342 171.762 73.6175Z" fill="#F6C1AA"/>
<path fill-rule="evenodd" clip-rule="evenodd" d="M507.362 63.2708C508.611 61.5717 509.268 59.4267 509.062 57.1611C508.615 52.2389 504.262 48.6113 499.34 49.0588C496.533 49.3139 494.004 50.4286 492.341 51.3092C490.541 52.262 488.749 53.4829 487.316 54.7727C485.846 56.0949 484.643 58.0446 484.339 60.4599C484.06 62.6748 484.642 64.4527 485.121 65.4969C485.981 67.3725 487.271 68.534 487.692 68.908C488.789 69.8822 490.04 70.6316 490.794 71.0611C492.36 71.9538 494.432 72.9368 495.726 73.3681C500.415 74.931 505.483 72.397 507.046 67.708C507.54 66.226 507.625 64.706 507.362 63.2708Z" fill="#F6C1AA"/>
<path fill-rule="evenodd" clip-rule="evenodd" d="M521.652 238.922C526.106 241.066 527.978 246.415 525.833 250.868C521.676 259.502 517.084 267.79 511.688 275.884C508.947 279.996 503.39 281.107 499.278 278.366C495.166 275.624 494.054 270.068 496.796 265.955C501.655 258.666 505.847 251.12 509.707 243.103C511.851 238.65 517.199 236.778 521.652 238.922Z" fill="#F6C1AA"/>
<path fill-rule="evenodd" clip-rule="evenodd" d="M536.604 268.864C540.836 267.234 543.23 262.631 542.011 258.161C540.71 253.393 535.791 250.582 531.022 251.882C526.778 253.04 523.985 255.861 522.328 258.066C520.634 260.322 519.52 262.737 518.824 264.477C516.988 269.066 519.221 274.274 523.81 276.109C528.399 277.945 533.607 275.713 535.442 271.124C535.636 270.641 535.843 270.178 536.062 269.76C536.267 269.367 536.453 269.072 536.604 268.864Z" fill="#F6C1AA"/>
<path fill-rule="evenodd" clip-rule="evenodd" d="M553.761 270.729C557.754 268.897 559.889 264.356 558.59 260.028C557.17 255.293 552.181 252.607 547.447 254.027C543.481 255.217 540.825 258.298 539.79 259.511C539.119 260.298 538.501 261.098 538.054 261.676C538.037 261.699 538.02 261.721 538.003 261.743C537.472 262.431 537.235 262.729 537.086 262.897C533.802 266.591 534.135 272.248 537.829 275.531C541.523 278.815 547.18 278.482 550.463 274.788C551.074 274.101 551.684 273.311 552.1 272.772C552.124 272.742 552.146 272.712 552.168 272.684C552.665 272.04 553.041 271.557 553.408 271.126C553.546 270.964 553.663 270.834 553.761 270.729Z" fill="#F6C1AA"/>
<path fill-rule="evenodd" clip-rule="evenodd" d="M134.272 242.451C136.555 240.566 137.854 237.589 137.46 234.434C136.847 229.53 132.374 226.051 127.469 226.664C122.784 227.249 120.157 230.435 118.958 232.5C117.799 234.497 117.236 236.621 116.926 237.982C116.656 239.165 116.442 240.437 116.293 241.324C116.262 241.505 116.235 241.67 116.21 241.815C116.081 242.562 116.01 242.857 116.008 242.888C114.358 247.412 116.591 252.458 121.093 254.259C125.682 256.095 130.891 253.863 132.726 249.274C133.112 248.309 133.342 247.382 133.481 246.759C133.63 246.091 133.752 245.414 133.847 244.858C133.895 244.582 133.938 244.327 133.979 244.089C134.087 243.454 134.174 242.937 134.272 242.451Z" fill="#F6C1AA"/>
<path fill-rule="evenodd" clip-rule="evenodd" d="M176.959 238.23C177.772 243.105 174.478 247.716 169.603 248.529C169.374 248.567 168.45 248.871 166.875 250.18C165.398 251.409 163.938 253.026 162.633 254.657C159.545 258.517 153.913 259.142 150.054 256.055C146.194 252.967 145.569 247.336 148.656 243.476C150.323 241.392 152.642 238.737 155.433 236.417C158.127 234.178 161.96 231.657 166.66 230.874C171.536 230.061 176.147 233.355 176.959 238.23Z" fill="#F6C1AA"/>
<path fill-rule="evenodd" clip-rule="evenodd" d="M198.546 247.491C199.99 252.218 197.329 257.221 192.603 258.665C189.101 259.735 185.988 261.794 181.424 264.837C177.311 267.579 171.755 266.467 169.013 262.355C166.272 258.242 167.383 252.686 171.495 249.944C171.726 249.791 171.961 249.633 172.201 249.473C176.146 246.834 181.257 243.416 187.372 241.548C192.099 240.103 197.102 242.764 198.546 247.491Z" fill="#F6C1AA"/>
<path d="M231.178 133.802L202.02 137.964L194.865 143.745L187.892 176.308L191.405 201.323L228.202 208.667L253.424 184.525L252.709 158.874L243.648 136.803L231.178 133.802Z" fill="white"/>
<path d="M231.178 133.802L202.02 137.964L194.865 143.745L187.892 176.308L191.405 201.323L228.202 208.667L253.424 184.525L252.709 158.874L243.648 136.803L231.178 133.802Z" fill="white"/>
<path d="M231.178 133.802L202.02 137.964L194.865 143.745L187.892 176.308L191.405 201.323L228.202 208.667L253.424 184.525L252.709 158.874L243.648 136.803L231.178 133.802Z" fill="white"/>
<path d="M231.178 133.802L202.02 137.964L194.865 143.745L187.892 176.308L191.405 201.323L228.202 208.667L253.424 184.525L252.709 158.874L243.648 136.803L231.178 133.802Z" fill="white"/>
<path d="M231.178 133.802L202.02 137.964L194.865 143.745L187.892 176.308L191.405 201.323L228.202 208.667L253.424 184.525L252.709 158.874L243.648 136.803L231.178 133.802Z" fill="white"/>
<path fill-rule="evenodd" clip-rule="evenodd" d="M231.201 133.266L244.031 136.353L253.23 158.762L253.955 184.742L228.366 209.236L190.934 201.765L187.356 176.288L194.388 143.452L201.8 137.462L231.201 133.266ZM202.236 138.464L195.339 144.037L188.425 176.326L191.872 200.878L228.034 208.096L252.889 184.305L252.183 158.983L243.262 137.25L231.15 134.337L202.236 138.464Z" fill="#F6C1AA"/>
<path fill-rule="evenodd" clip-rule="evenodd" d="M232.391 146.482C219.027 146.258 209.317 147.147 199.695 153.248C196.727 155.131 195.22 157.133 194.377 159.092C193.483 161.167 193.092 163.774 193.284 167.108C193.614 172.823 195.425 178.811 197.452 185.515C197.972 187.234 198.506 189 199.033 190.82C199.453 192.27 199.489 193.74 199.202 195.122C200.577 195.546 202.128 195.941 203.873 196.332C210.264 197.761 217.039 199.239 223.432 199.384C229.845 199.529 234.413 198.283 237.427 195.665C241.89 191.79 244.746 185.149 245.36 177.076C245.972 169.035 244.228 160.934 241.097 155.359C238.941 151.52 237.633 149.382 236.218 147.995C235.255 147.051 234.327 146.515 232.391 146.482ZM178.827 185.729C177.241 180.181 175.754 174.013 175.415 168.139C175.117 162.972 175.622 157.39 177.937 152.013C180.303 146.519 184.317 141.806 190.11 138.133C204.366 129.092 218.576 128.349 232.691 128.586C239.509 128.701 244.735 131.279 248.749 135.215C252.231 138.629 254.693 143.014 256.572 146.361C256.616 146.44 256.659 146.517 256.703 146.594C261.791 155.653 264.05 167.365 263.207 178.434C262.367 189.47 258.311 201.235 249.163 209.179C241.316 215.994 231.456 217.469 223.027 217.278C214.672 217.088 206.284 215.212 200.172 213.844L199.966 213.798C194.399 212.553 185.984 210.443 179.78 204.239C178.07 202.529 177.329 200.602 176.997 199.577C176.633 198.45 176.447 197.384 176.343 196.715C176.287 196.355 176.24 196.011 176.204 195.746L176.189 195.63C176.158 195.402 176.137 195.244 176.114 195.091C176.106 195.039 176.1 194.995 176.094 194.96C175.106 191.531 176.267 187.952 178.827 185.729ZM176.073 194.842C176.073 194.842 176.074 194.846 176.076 194.854C176.074 194.846 176.073 194.842 176.073 194.842Z" fill="#F6C1AA"/>
<path fill-rule="evenodd" clip-rule="evenodd" d="M202.927 173.055C201.26 172.516 199.733 171.482 198.587 169.986C195.58 166.063 196.323 160.446 200.246 157.439C202.9 155.405 206.423 153.278 210.027 151.557C213.524 149.887 217.828 148.244 221.944 147.748C225.33 147.34 233.476 147.327 236.898 155.145C238.175 158.063 238.192 161.055 237.807 163.577C239.23 167.842 239.305 172.319 238.443 176.495C238.419 176.825 238.387 177.146 238.347 177.455C237.74 182.208 235.354 187.036 231.587 190.584C230.085 191.998 228.327 193.236 226.353 194.177C224.002 195.615 221.335 196.679 218.372 197.192C213.773 197.989 207.977 197.696 203.784 193.373C199.706 189.168 199.693 183.749 200.286 180.378C200.739 177.802 201.698 175.3 202.927 173.055Z" fill="#F6C1AA"/>
<path fill-rule="evenodd" clip-rule="evenodd" d="M452.624 134.477C452.363 134.47 451.529 134.528 448.784 135.651C440.506 139.038 432.903 145.108 427.933 152.47C421.225 162.409 421.03 175.687 425.844 187.634C427.302 187.632 428.781 187.988 430.15 188.738C431.346 189.394 432.445 190.008 433.466 190.579C439.553 193.981 442.876 195.838 447.628 195.838C450.638 195.838 453.588 196.038 456.201 196.215L456.325 196.223C459.069 196.409 461.458 196.567 463.805 196.567C469.522 196.567 474.786 194.157 478.417 189.907C482.699 184.893 483.927 175.344 481.319 167.383C480.486 164.841 478.904 162.406 476.463 159.473C475.47 158.279 474.446 157.131 473.309 155.854C473.029 155.541 472.743 155.219 472.448 154.888C471.018 153.277 469.442 151.474 467.956 149.535C463.318 143.482 459.803 139.056 454.87 135.629C453.942 134.984 453.364 134.705 453.048 134.583C452.784 134.482 452.677 134.479 452.626 134.477L452.624 134.477ZM427.792 207.952C433.136 210.844 439.721 213.737 447.628 213.737C449.98 213.737 452.373 213.895 455.116 214.081L455.246 214.09C457.857 214.266 460.802 214.466 463.805 214.466C474.653 214.466 484.928 209.842 492.026 201.532C501.524 190.412 502.25 173.783 498.328 161.811C496.459 156.104 493.211 151.616 490.221 148.024C489.014 146.573 487.738 145.142 486.586 143.85C486.327 143.56 486.075 143.277 485.831 143.002C484.437 141.433 483.229 140.039 482.164 138.648L482.07 138.527C477.622 132.722 472.578 126.139 465.084 120.931C461.526 118.458 457.668 116.71 453.113 116.586C448.884 116.47 445.106 117.818 442.007 119.085C430.577 123.761 420.12 132.054 413.098 142.457L420.516 147.464L413.098 142.457C399.645 162.387 403.628 187.777 415.038 205.526C417.711 209.683 423.248 210.887 427.406 208.214C427.537 208.13 427.666 208.042 427.792 207.952Z" fill="#F6C1AA"/>
<path fill-rule="evenodd" clip-rule="evenodd" d="M448.138 147.871C446.884 146.454 445.173 145.421 443.173 145.026C438.324 144.068 433.617 147.222 432.659 152.071C432.532 152.712 432.396 153.372 432.256 154.048C431.471 157.849 430.587 162.13 430.766 166.182C430.802 166.986 430.875 167.775 430.985 168.55C429.039 171.253 428.618 174.484 429.275 177.367C430.513 182.796 434.057 185.771 437.273 187.376C438.069 187.773 438.87 188.101 439.561 188.361C440.219 188.832 441.016 189.293 441.945 189.634C442.728 189.922 443.801 190.191 445.044 190.212C445.479 190.279 445.916 190.312 446.349 190.314C450.119 192.345 454.399 193.28 458.898 192.274C468.866 190.044 472.664 180.3 472.664 171.063C472.664 170.867 472.666 170.636 472.667 170.375C472.683 168.05 472.714 163.287 471.836 158.966C471.347 156.562 470.417 153.385 468.374 150.611C466.073 147.483 462.38 144.974 457.462 144.859C454.38 144.786 451.24 145.553 448.545 147.556C448.406 147.659 448.27 147.764 448.138 147.871Z" fill="#F6C1AA"/>
<path d="M56.9721 336.488C52.6632 352.222 54.0791 369.112 54.0791 385.228C54.0791 426.445 54.0791 467.662 54.0791 508.878C54.0791 547.933 54.0791 586.987 54.0791 626.041C54.0791 678.034 54.0791 730.028 54.0791 782.021" stroke="#F6C1AA" stroke-width="12" stroke-linecap="round"/>
<path d="M647.152 305.332C647.152 344.262 647.734 383.258 646.998 422.179C646.703 437.793 645.573 453.288 644.793 468.868C643.062 503.406 642.996 538.087 642.742 572.676C642.295 633.512 646.408 693.063 652.639 753.411C653.152 758.378 653.613 763.057 653.613 768.001" stroke="#F6C1AA" stroke-width="12" stroke-linecap="round"/>
<path d="M301.561 570.593C308.31 580.362 314.592 585.645 326.931 586.542C338.295 587.369 353.842 582.634 358.643 571.432" stroke="#F6C1AA" stroke-width="12" stroke-linecap="round"/>
<path d="M142.907 519.387C145.531 532.912 147.994 546.14 156.525 557.348C162.99 565.844 170.811 573.592 178.164 581.319C189.372 593.1 201.818 604.356 210.016 618.581C217.321 631.258 220.145 646.442 223.82 660.459C228.714 679.132 234.675 699.296 248.676 713.297" stroke="#F6C1AA" stroke-width="12" stroke-linecap="round"/>
<path d="M418.243 720.013C431.504 703.841 438.344 685.578 445.011 666.196C450.301 650.818 456.649 635.368 469.495 624.737C473.356 621.541 477.646 618.896 481.574 615.783C492.575 607.065 501.44 597.116 508.342 584.77C520.759 562.56 524.867 538.982 528.862 514.444C530.233 506.023 532.406 497.729 532.406 489.167" stroke="#F6C1AA" stroke-width="12" stroke-linecap="round"/>
<path d="M467.77 740.999C482.622 720.205 497.31 699.359 509.928 677.109C512.24 673.031 514.242 668.474 517.576 665.077C526.773 655.703 534.4 646.184 541.827 635.183C552.368 619.57 561.464 603.473 569.528 586.449C576.641 571.434 582.466 555.483 591.167 541.259C594.6 535.647 600.154 532.349 603.759 526.942" stroke="#F6C1AA" stroke-width="12" stroke-linecap="round"/>
<path d="M236.924 531.979C231.852 547.48 229.662 561.139 231.048 577.309" stroke="#F6C1AA" stroke-width="12" stroke-linecap="round"/>
</g>
<defs>
<clipPath id="clip0_489_14145">
<rect width="690.11" height="768" fill="white" transform="translate(0.890625 0.000488281)"/>
</clipPath>
</defs>
</svg>
