<svg width="23" height="18" viewBox="0 0 23 18" fill="none" xmlns="http://www.w3.org/2000/svg">
<path d="M8.30859 1.18657C8.62966 1.43819 8.74397 1.93778 8.88861 2.3018C9.0165 2.62367 9.06841 2.61018 9.38001 2.51831C9.54449 2.46982 9.7242 2.43899 9.89557 2.43661C10.9264 2.42229 11.9069 2.58625 12.9286 2.71848C13.1921 2.7526 13.4123 2.84298 13.5207 2.59184C13.5627 2.4944 13.6107 2.40096 13.6576 2.30589C13.8286 1.95914 14.046 1.64066 14.2739 1.32955C14.4148 1.13717 14.5052 0.887329 14.7411 1.05585C15.3076 1.46043 16.1318 1.50574 16.7933 1.61755C17.046 1.66027 17.3035 1.66464 17.5546 1.70538C17.6225 1.71641 17.6481 1.83503 17.6714 1.88512C17.8568 2.28475 18.1151 2.6295 18.346 3.00035C18.8826 3.86202 19.4184 4.75542 19.7719 5.71285C20.1152 6.64267 20.568 7.51211 20.8876 8.45395C21.0821 9.0269 21.2156 9.62431 21.3065 10.2228C21.3579 10.561 21.4493 10.912 21.4697 11.2522C21.4922 11.6298 21.4877 12.0115 21.522 12.3879C21.5326 12.5034 21.5741 12.6473 21.4999 12.7494C21.2495 13.094 20.6426 13.2558 20.2996 13.4541C19.5323 13.8977 18.84 14.4538 18.0661 14.8859C17.3475 15.2872 16.6335 15.7036 15.9052 16.0849C15.6142 16.2372 15.354 16.4349 15.0674 16.5914C14.9234 16.6701 14.8894 16.387 14.8539 16.281C14.666 15.7198 14.5201 15.1448 14.3141 14.5897C14.3018 14.5565 14.1016 14.07 14.1409 14.0464C14.3473 13.9228 14.6735 13.9401 14.9042 13.8524C15.1689 13.7517 15.4266 13.6916 15.6816 13.5766C15.7493 13.5461 15.935 13.2597 15.9213 13.2458" stroke="white" stroke-width="2" stroke-linecap="round"/>
<path d="M13.6414 14.0676C13.4637 14.0867 13.273 14.1243 13.12 14.2173C12.8232 14.3979 12.5636 14.4812 12.2077 14.5425C11.2114 14.7141 10.2049 14.5933 9.20609 14.509C8.69196 14.4656 8.11596 14.5156 7.65436 14.2587C7.27779 14.0492 6.84498 13.9464 6.53027 13.6419" stroke="white" stroke-width="2" stroke-linecap="round"/>
<path d="M7.12388 14.8273C6.72166 15.2736 6.40161 15.8722 6.13623 16.4075" stroke="white" stroke-width="2" stroke-linecap="round"/>
<path d="M7.51849 1.19809C6.64149 1.57198 5.74808 1.92091 4.85954 2.26656C4.61947 2.35996 4.12911 2.42796 3.9759 2.66622C3.86008 2.84634 3.79268 3.06944 3.70478 3.26367C3.60849 3.47646 3.48722 3.68033 3.40153 3.89782C3.16139 4.50739 2.94216 5.13258 2.71069 5.74727C2.468 6.39172 2.13893 7.02026 1.97164 7.6905C1.81616 8.31345 1.80876 8.9576 1.66237 9.58277C1.51147 10.2272 1.37411 10.8773 1.23059 11.524C1.10448 12.0922 1.01169 12.6568 1.01169 13.2409C1.01169 13.3287 0.973249 13.5643 1.03579 13.6405C1.16305 13.7956 1.41234 13.9065 1.56597 14.0402C1.78154 14.2278 2.00034 14.4101 2.22469 14.5867C2.46984 14.7796 2.68137 15.0422 2.89947 15.2636C3.26738 15.6372 3.65491 15.994 4.02008 16.3647C4.25421 16.6024 4.43906 16.7723 4.7531 16.8704C4.89454 16.9146 5.42186 17.1165 5.42186 16.9071" stroke="white" stroke-width="2" stroke-linecap="round"/>
<path d="M8.19161 9.72347C8.17546 9.49948 7.86719 9.74152 7.8469 9.51782C7.81756 9.1944 7.54785 9.18308 7.75468 8.95915C7.89294 8.80946 8.05621 8.6921 8.21376 8.56409C8.27097 8.5176 8.40595 8.34454 8.49968 8.37055C8.95755 8.49759 8.9864 9.19674 8.77553 9.51782C8.68261 9.65931 8.50869 9.87452 8.32652 9.79715C8.08524 9.69469 7.96682 9.51063 7.8473 9.27639C7.72614 9.03894 7.8473 8.82472 7.8473 8.56409C7.8473 8.32719 8.1021 8.45136 8.32646 8.37051" stroke="white" stroke-width="2" stroke-linecap="round"/>
<path d="M13.9933 9.37088C13.999 9.22512 14.0036 9.04979 14.1532 8.95345C14.3156 8.84881 14.6046 8.9648 14.6494 9.07624C14.7117 9.23133 14.6322 9.68333 14.5002 9.81972C14.4162 9.90645 13.5828 9.60957 13.5828 9.37088C13.4235 8.95345 13.7939 8.7334 13.9744 8.51385C14.1131 8.34516 14.611 8.67468 14.6494 8.80954" stroke="white" stroke-width="2" stroke-linecap="round"/>
</svg>
