<svg width="32" height="32" viewBox="0 0 32 32" fill="none" xmlns="http://www.w3.org/2000/svg">
<path d="M13.0371 8.1864C13.3582 8.43802 13.4725 8.93761 13.6171 9.30163C13.745 9.6235 13.7969 9.61001 14.1085 9.51814C14.273 9.46965 14.4527 9.43882 14.6241 9.43644C15.6549 9.42212 16.6354 9.58608 17.6571 9.71831C17.9207 9.75243 18.1408 9.84281 18.2492 9.59167C18.2912 9.49423 18.3393 9.40079 18.3861 9.30572C18.5571 8.95897 18.7745 8.64049 19.0024 8.32938C19.1433 8.13699 19.2337 7.88716 19.4696 8.05568C20.0361 8.46026 20.8603 8.50556 21.5218 8.61738C21.7746 8.6601 22.032 8.66447 22.2831 8.70521C22.3511 8.71624 22.3766 8.83486 22.3999 8.88495C22.5853 9.28457 22.8436 9.62932 23.0746 10.0002C23.6111 10.8618 24.1469 11.7553 24.5004 12.7127C24.8437 13.6425 25.2965 14.5119 25.6161 15.4538C25.8106 16.0267 25.9441 16.6241 26.035 17.2226C26.0865 17.5608 26.1778 17.9119 26.1982 18.2521C26.2207 18.6297 26.2162 19.0114 26.2505 19.3877C26.2611 19.5032 26.3026 19.6471 26.2284 19.7492C25.978 20.0938 25.3712 20.2556 25.0281 20.4539C24.2608 20.8975 23.5685 21.4536 22.7946 21.8857C22.076 22.287 21.362 22.7034 20.6337 23.0847C20.3428 23.237 20.0825 23.4347 19.7959 23.5913C19.6519 23.6699 19.6179 23.3868 19.5824 23.2808C19.3945 22.7196 19.2486 22.1446 19.0427 21.5896C19.0303 21.5563 18.8302 21.0698 18.8695 21.0463C19.0758 20.9226 19.402 20.94 19.6327 20.8522C19.8975 20.7515 20.1551 20.6914 20.4101 20.5765C20.4778 20.546 20.6635 20.2595 20.6498 20.2456" stroke="#FF4D00" stroke-width="2" stroke-linecap="round"/>
<path d="M18.3699 21.0674C18.1922 21.0865 18.0015 21.1241 17.8486 21.2172C17.5518 21.3977 17.2921 21.4811 16.9363 21.5423C15.94 21.7139 14.9334 21.5931 13.9346 21.5088C13.4205 21.4655 12.8445 21.5154 12.3829 21.2585C12.0063 21.049 11.5735 20.9463 11.2588 20.6417" stroke="#FF4D00" stroke-width="2" stroke-linecap="round"/>
<path d="M11.8524 21.8271C11.4502 22.2734 11.1301 22.872 10.8647 23.4074" stroke="#FF4D00" stroke-width="2" stroke-linecap="round"/>
<path d="M12.247 8.19791C11.37 8.5718 10.4766 8.92072 9.58806 9.26638C9.34798 9.35977 8.85762 9.42778 8.70442 9.66604C8.5886 9.84615 8.52119 10.0693 8.4333 10.2635C8.33701 10.4763 8.21573 10.6801 8.13005 10.8976C7.8899 11.5072 7.67068 12.1324 7.4392 12.7471C7.19652 13.3915 6.86745 14.0201 6.70016 14.6903C6.54467 15.3133 6.53728 15.9574 6.39088 16.5826C6.23998 17.227 6.10262 17.8771 5.95911 18.5238C5.833 19.092 5.7402 19.6566 5.7402 20.2407C5.7402 20.3285 5.70176 20.5641 5.7643 20.6403C5.89156 20.7954 6.14085 20.9063 6.29449 21.04C6.51006 21.2276 6.72885 21.4099 6.9532 21.5865C7.19836 21.7794 7.40988 22.042 7.62798 22.2634C7.99589 22.637 8.38342 22.9938 8.7486 23.3645C8.98272 23.6023 9.16758 23.7721 9.48162 23.8702C9.62305 23.9144 10.1504 24.1163 10.1504 23.9069" stroke="#FF4D00" stroke-width="2" stroke-linecap="round"/>
<path d="M12.9201 16.7233C12.904 16.4993 12.5957 16.7414 12.5754 16.5177C12.5461 16.1942 12.2764 16.1829 12.4832 15.959C12.6215 15.8093 12.7847 15.6919 12.9423 15.5639C12.9995 15.5174 13.1345 15.3444 13.2282 15.3704C13.6861 15.4974 13.7149 16.1966 13.504 16.5177C13.4111 16.6591 13.2372 16.8744 13.055 16.797C12.8138 16.6945 12.6953 16.5105 12.5758 16.2762C12.4547 16.0388 12.5758 15.8246 12.5758 15.5639C12.5758 15.327 12.8306 15.4512 13.055 15.3703" stroke="#FF4D00" stroke-width="2" stroke-linecap="round"/>
<path d="M18.7219 16.3707C18.7275 16.2249 18.7321 16.0496 18.8817 15.9533C19.0442 15.8486 19.3332 15.9646 19.3779 16.0761C19.4403 16.2311 19.3607 16.6831 19.2287 16.8195C19.1448 16.9063 18.3113 16.6094 18.3113 16.3707C18.152 15.9533 18.5224 15.7332 18.7029 15.5137C18.8417 15.345 19.3396 15.6745 19.3779 15.8094" stroke="#FF4D00" stroke-width="2" stroke-linecap="round"/>
</svg>
