<svg width="41" height="28" viewBox="0 0 41 28" fill="none" xmlns="http://www.w3.org/2000/svg">
<g clip-path="url(#clip0_1208_459)">
<path d="M13.7056 4.14671C14.2161 3.98 14.6979 3.73551 15.2155 3.58719C16.4403 3.23625 17.7385 3.17063 19.0018 3.07366C19.9445 3.0013 20.8557 2.97202 21.7994 3.05066C22.1713 3.08165 23.2961 3.20006 23.6849 3.24228C24.0369 3.2805 24.467 3.28454 24.804 3.43006C25.5382 3.74711 26.4484 4.05887 27.0191 4.62958" stroke="#FF4D00" stroke-width="2" stroke-linecap="round"/>
<path d="M8.32495 5.36621C5.45703 6.36375 3.29973 9.2989 2.25072 12.0689C1.18517 14.8826 0.498248 18.129 1.45742 21.0711C1.86141 22.3102 2.78993 23.454 3.72233 24.3401C4.64858 25.2203 5.85111 25.7886 7.08328 26.0876C7.91363 26.2891 8.72491 26.5448 9.5513 26.7583C9.80071 26.8227 10.0284 26.8435 10.2564 26.9575" stroke="#FF4D00" stroke-width="2" stroke-linecap="round"/>
<path d="M32.1235 5.78009C32.9239 6.16916 33.7755 6.48307 34.5532 6.91446C35.8881 7.65489 36.8803 8.98401 37.7992 10.1604C38.8091 11.4533 39.4705 12.6816 39.8419 14.2802C40.1823 15.7456 40.557 17.486 40.1561 18.9786C39.7712 20.4115 38.7574 21.5482 37.6191 22.4507C35.9135 23.8031 33.9921 24.2227 31.9511 24.7808C30.8458 25.083 29.7432 25.3135 28.6055 25.4399" stroke="#FF4D00" stroke-width="2" stroke-linecap="round"/>
<path d="M7 23.0692C7.22003 23.2257 7.33441 23.3891 7.47806 23.5934C7.84591 24.1166 8.24552 24.604 8.75624 25.0541C9.48412 25.6955 10.3316 26.338 11.2572 26.8077C12.4266 27.4009 13.7153 27.9678 15.1471 27.9909C16.8427 28.0182 18.5049 27.9949 20.1743 27.7519C23.255 27.3034 26.1571 26.3323 28.7744 25.0232C30.0086 24.4059 31.1604 23.9644 32 22.9998" stroke="#FF4D00" stroke-width="2" stroke-linecap="round"/>
<path d="M10.1187 13.575C10.1187 13.8231 10.3179 13.3664 10.3179 13.6095C10.3179 13.6689 10.2518 13.7565 10.203 13.667C10.1479 13.566 10.3348 13.4279 10.3946 13.3681" stroke="#FF4D00" stroke-width="2" stroke-linecap="round"/>
<path d="M26.3292 12.3334H26.0532" stroke="#FF4D00" stroke-width="2" stroke-linecap="round"/>
<path d="M17.4849 18.1256C17.7493 18.1634 17.8989 18.2868 17.8461 18.5659C17.7832 18.8991 17.7054 18.9243 17.4849 18.7353" stroke="#FF4D00" stroke-width="2" stroke-linecap="round"/>
<path d="M17.7387 19.7006C17.6342 20.3448 17.5836 21.3002 16.9371 21.6594C16.236 22.0489 15.2172 21.8076 14.6396 21.3263" stroke="#FF4D00" stroke-width="2" stroke-linecap="round"/>
<path d="M17.5356 20.9707C17.8445 21.6286 18.379 21.9289 19.0654 22.125C19.9253 22.3707 21.0186 22.4814 21.7637 21.8767C21.9964 21.6878 22.2766 21.3894 22.3508 21.0836C22.3763 20.9783 22.3553 20.7133 22.2604 20.6658" stroke="#FF4D00" stroke-width="2" stroke-linecap="round"/>
<path d="M16.418 22.5964C16.418 23.895 16.8793 25.6893 18.5207 25.5458C19.7073 25.4422 20.3299 24.3542 20.3299 23.2568" stroke="#FF4D00" stroke-width="2" stroke-linecap="round"/>
<path d="M17.4849 17.9224C17.8565 17.7432 18.9826 17.3283 18.5687 18.1397C18.2673 18.7305 17.1583 18.6116 16.6268 18.4925C16.1138 18.3775 16.2331 17.9005 16.6692 17.6825C17.1326 17.4507 17.7298 17.3635 18.2469 17.3635" stroke="#FF4D00" stroke-width="2" stroke-linecap="round"/>
<path d="M16.1641 14.4677C16.7544 13.594 18.3779 13.8653 19.2603 13.8326C19.8387 13.8112 20.4624 13.7972 20.9905 14.0612" stroke="#FF4D00" stroke-width="2" stroke-linecap="round"/>
<path d="M32.8783 16.9063C32.5569 17.2345 32.2632 17.5752 31.9639 17.9224" stroke="#FF4D00" stroke-width="2" stroke-linecap="round"/>
<path d="M35.6219 17.0587C35.3524 17.2524 35.1354 17.4783 34.9106 17.7192" stroke="#FF4D00" stroke-width="2" stroke-linecap="round"/>
<path d="M4.47858 18.5828C4.46351 18.7939 4.37649 18.9912 4.32617 19.1925" stroke="#FF4D00" stroke-width="2" stroke-linecap="round"/>
<path d="M7.12086 18.7353C6.93654 18.9582 6.75535 19.1809 6.56201 19.3957" stroke="#FF4D00" stroke-width="2" stroke-linecap="round"/>
<path d="M27 2.9902C27.8235 1.9902 29.0042 1.05607 29.4612 0.905125C30.0179 0.721255 30.5858 0.550845 31.1468 0.400612C31.836 0.216064 32.526 0.117931 33.2237 0.0466996C33.2919 0.0397379 33.6007 -0.0553418 33.685 0.0492096C33.8037 0.196371 33.8315 0.604647 33.866 0.814764C33.9597 1.38567 33.9582 1.96373 33.9719 2.54919C33.9853 3.11794 34.0337 3.74572 33.9605 4.30871C33.8849 4.89096 33.7807 5.4958 33.5758 6.00046" stroke="#FF4D00" stroke-width="2" stroke-linecap="round"/>
<path d="M14.0001 3.25798C13.0484 2.2241 12.0787 1.18468 10.9094 0.904245C10.3186 0.762563 9.75433 0.471101 9.18851 0.173509C9.10444 0.129289 8.84774 -0.105936 8.76927 0.0658219C8.47464 0.710662 8.30814 1.60912 8.1209 2.34264C7.87493 3.30622 7.61095 4.26923 7.39453 5.2502" stroke="#FF4D00" stroke-width="2" stroke-linecap="round"/>
</g>
<defs>
<clipPath id="clip0_1208_459">
<rect width="40.3297" height="27.9994" fill="white" transform="translate(0 0.000457764)"/>
</clipPath>
</defs>
</svg>
