<svg width="32" height="32" viewBox="0 0 32 32" fill="none" xmlns="http://www.w3.org/2000/svg">
<path d="M8.22168 8.22226C9.12737 8.50509 10.0957 8.94878 11.0625 8.94878C11.9971 8.94878 12.9162 9.07601 13.8369 9.23131C14.1009 9.27585 14.4006 9.29045 14.5789 9.51961C14.974 10.0275 15.2925 10.6289 15.6413 11.1687C16.3732 12.3014 17.0581 13.4656 17.795 14.5937C18.7015 15.9814 19.555 17.3987 20.3645 18.8462C21.0389 20.0522 21.5879 21.3489 22.4085 22.4701C22.6025 22.7353 23.5019 23.9981 22.9137 23.9981C22.5375 23.9981 22.161 24.0022 21.7849 23.9981C21.464 23.9946 21.1586 23.8983 20.8379 23.8943C20.0949 23.8851 19.356 23.8424 18.6149 23.8424" stroke="#FF4D00" stroke-width="2" stroke-linecap="round"/>
<path d="M9.16064 9.5556C9.99074 10.8347 10.758 12.0998 11.3214 13.5038C11.7826 14.6531 12.5999 15.7393 13.243 16.7872C13.8721 17.8124 14.481 18.8538 15.1351 19.8644C15.4291 20.3187 15.7287 20.6929 16.0827 21.1022C16.7195 21.8387 17.1382 22.7013 17.8803 23.3714C18.046 23.521 18.1719 23.6608 18.2995 23.8413C18.5665 24.2189 18.4915 23.8366 18.4589 23.5834" stroke="#FF4D00" stroke-width="2" stroke-linecap="round"/>
<path d="M13.4941 17.5004C12.3274 18.8337 10.4352 20.9415 9.33332 21.6805C8.84884 22.0054 8.40732 22.4766 8 22.8894" stroke="#FF4D00" stroke-width="2" stroke-linecap="round"/>
<path d="M18.4448 13.3337C19.0481 12.5391 19.6552 11.762 20.1822 10.9173C20.5512 10.3258 21.0603 9.91276 21.4924 9.38119C21.8413 8.95201 22.1764 8.48198 22.4448 8.0004" stroke="#FF4D00" stroke-width="2" stroke-linecap="round"/>
</svg>
